font.ufo
<glyph name="parenright" format="2">
	<unicode hex="0029"/>
	<advance width="600"/>
	<outline>
		<contour>
			<point x="208" y="-179" type="line"/>
			<point x="338" y="-64"/>
			<point x="419" y="90"/>
			<point x="419" y="278" type="curve" smooth="yes"/>
			<point x="419" y="466"/>
			<point x="338" y="620"/>
			<point x="208" y="735" type="curve"/>
			<point x="126" y="670" type="line"/>
			<point x="245" y="554"/>
			<point x="296" y="436"/>
			<point x="296" y="278" type="curve" smooth="yes"/>
			<point x="296" y="120"/>
			<point x="245" y="2"/>
			<point x="126" y="-114" type="curve"/>
		</contour>
	</outline>
</glyph>
<glyph name="one" format="2">
	<unicode hex="0031"/>
	<advance width="600"/>
	<outline>
		<contour>
			<point x="79" y="0" type="line"/>
			<point x="541" y="0" type="line"/>
			<point x="541" y="119" type="line"/>
			<point x="397" y="119" type="line"/>
			<point x="397" y="635" type="line"/>
			<point x="289" y="635" type="line"/>
			<point x="240" y="606"/>
			<point x="195" y="590"/>
			<point x="109" y="577" type="curve"/>
			<point x="109" y="486" type="line"/>
			<point x="250" y="486" type="line"/>
			<point x="250" y="119" type="line"/>
			<point x="79" y="119" type="line"/>
		</contour>
	</outline>
</glyph>
<glyph name="E" format="2">
	<unicode hex="0045"/>
	<advance width="600"/>
	<outline>
		<contour>
			<point x="92" y="0" type="line"/>
			<point x="534" y="0" type="line"/>
			<point x="534" y="124" type="line"/>
			<point x="240" y="124" type="line"/>
			<point x="240" y="274" type="line"/>
			<point x="481" y="274" type="line"/>
			<point x="481" y="397" type="line"/>
			<point x="240" y="397" type="line"/>
			<point x="240" y="528" type="line"/>
			<point x="524" y="528" type="line"/>
			<point x="524" y="652" type="line"/>
			<point x="92" y="652" type="line"/>
		</contour>
	</outline>
	<anchor name="aboveUC" x="323" y="672"/>
	<anchor name="baseLC" x="322" y="0"/>
	<anchor name="belowLC" x="324" y="-20"/>
	<anchor name="ogonekUC" x="430" y="0"/>
</glyph>
<glyph name="F" format="2">
	<unicode hex="0046"/>
	<advance width="600"/>
	<outline>
		<contour>
			<point x="105" y="0" type="line"/>
			<point x="252" y="0" type="line"/>
			<point x="252" y="253" type="line"/>
			<point x="496" y="253" type="line"/>
			<point x="496" y="377" type="line"/>
			<point x="252" y="377" type="line"/>
			<point x="252" y="528" type="line"/>
			<point x="538" y="528" type="line"/>
			<point x="538" y="652" type="line"/>
			<point x="105" y="652" type="line"/>
		</contour>
	</outline>
	<anchor name="aboveUC" x="333" y="672"/>
	<anchor name="baseLC" x="177" y="0"/>
	<anchor name="belowLC" x="180" y="-20"/>
</glyph>
<glyph name="G" format="2">
	<unicode hex="0047"/>
	<advance width="600"/>
	<outline>
		<contour>
			<point x="343" y="-12" type="curve" smooth="yes"/>
			<point x="426" y="-12"/>
			<point x="503" y="26"/>
			<point x="547" y="67" type="curve"/>
			<point x="547" y="367" type="line"/>
			<point x="320" y="367" type="line"/>
			<point x="320" y="247" type="line"/>
			<point x="415" y="247" type="line"/>
			<point x="415" y="135" type="line"/>
			<point x="401" y="122"/>
			<point x="376" y="115"/>
			<point x="351" y="115" type="curve" smooth="yes"/>
			<point x="248" y="115"/>
			<point x="196" y="193"/>
			<point x="196" y="327" type="curve" smooth="yes"/>
			<point x="196" y="458"/>
			<point x="260" y="537"/>
			<point x="345" y="537" type="curve" smooth="yes"/>
			<point x="397" y="537"/>
			<point x="427" y="518"/>
			<point x="455" y="490" type="curve"/>
			<point x="536" y="581" type="line"/>
			<point x="494" y="623"/>
			<point x="433" y="664"/>
			<point x="345" y="664" type="curve" smooth="yes"/>
			<point x="176" y="664"/>
			<point x="44" y="540"/>
			<point x="44" y="322" type="curve" smooth="yes"/>
			<point x="44" y="103"/>
			<point x="176" y="-12"/>
		</contour>
	</outline>
	<anchor name="aboveUC" x="330" y="672"/>
	<anchor name="belowLC" x="323" y="-20"/>
</glyph>
<glyph name="L" format="2">
	<unicode hex="004C"/>
	<advance width="600"/>
	<outline>
		<contour>
			<point x="107" y="0" type="line"/>
			<point x="544" y="0" type="line"/>
			<point x="544" y="124" type="line"/>
			<point x="254" y="124" type="line"/>
			<point x="254" y="652" type="line"/>
			<point x="107" y="652" type="line"/>
		</contour>
	</outline>
	<anchor name="aboveUC" x="193" y="672"/>
	<anchor name="baseLC" x="335" y="0"/>
	<anchor name="belowLC" x="335" y="-20"/>
	<anchor name="center" x="179" y="346"/>
</glyph>
<glyph name="N" format="2">
	<unicode hex="004E"/>
	<advance width="600"/>
	<outline>
		<contour>
			<point x="66" y="0" type="line"/>
			<point x="207" y="0" type="line"/>
			<point x="207" y="231" type="line" smooth="yes"/>
			<point x="207" y="308"/>
			<point x="193" y="395"/>
			<point x="186" y="467" type="curve"/>
			<point x="190" y="467" type="line"/>
			<point x="246" y="325" type="line"/>
			<point x="383" y="0" type="line"/>
			<point x="534" y="0" type="line"/>
			<point x="534" y="652" type="line"/>
			<point x="393" y="652" type="line"/>
			<point x="393" y="421" type="line" smooth="yes"/>
			<point x="393" y="344"/>
			<point x="407" y="253"/>
			<point x="414" y="184" type="curve"/>
			<point x="410" y="184" type="line"/>
			<point x="354" y="328" type="line"/>
			<point x="217" y="652" type="line"/>
			<point x="66" y="652" type="line"/>
		</contour>
	</outline>
	<anchor name="aboveUC" x="310" y="672"/>
	<anchor name="baseLC" x="464" y="0"/>
	<anchor name="belowLC" x="300" y="-20"/>
</glyph>
<glyph name="P" format="2">
	<unicode hex="0050"/>
	<advance width="600"/>
	<outline>
		<contour>
			<point x="75" y="0" type="line"/>
			<point x="222" y="0" type="line"/>
			<point x="222" y="221" type="line"/>
			<point x="306" y="221" type="line" smooth="yes"/>
			<point x="444" y="221"/>
			<point x="561" y="289"/>
			<point x="561" y="442" type="curve" smooth="yes"/>
			<point x="561" y="600"/>
			<point x="447" y="652"/>
			<point x="306" y="652" type="curve" smooth="yes"/>
			<point x="75" y="652" type="line"/>
		</contour>
		<contour>
			<point x="222" y="338" type="line"/>
			<point x="222" y="535" type="line"/>
			<point x="297" y="535" type="line" smooth="yes"/>
			<point x="375" y="535"/>
			<point x="417" y="510"/>
			<point x="417" y="442" type="curve" smooth="yes"/>
			<point x="417" y="374"/>
			<point x="378" y="338"/>
			<point x="297" y="338" type="curve" smooth="yes"/>
		</contour>
	</outline>
	<anchor name="aboveUC" x="320" y="672"/>
	<anchor name="belowLC" x="140" y="-20"/>
</glyph>
<glyph name="Q" format="2">
	<unicode hex="0051"/>
	<advance width="600"/>
	<outline>
		<contour>
			<point x="300" y="-12" type="curve" smooth="yes"/>
			<point x="455" y="-12"/>
			<point x="562" y="106"/>
			<point x="562" y="329" type="curve" smooth="yes"/>
			<point x="562" y="547"/>
			<point x="455" y="664"/>
			<point x="300" y="664" type="curve" smooth="yes"/>
			<point x="145" y="664"/>
			<point x="38" y="547"/>
			<point x="38" y="329" type="curve" smooth="yes"/>
			<point x="38" y="106"/>
			<point x="145" y="-12"/>
		</contour>
		<contour>
			<point x="300" y="108" type="curve" smooth="yes"/>
			<point x="232" y="108"/>
			<point x="189" y="178"/>
			<point x="189" y="329" type="curve" smooth="yes"/>
			<point x="189" y="464"/>
			<point x="232" y="537"/>
			<point x="300" y="537" type="curve" smooth="yes"/>
			<point x="368" y="537"/>
			<point x="411" y="464"/>
			<point x="411" y="329" type="curve" smooth="yes"/>
			<point x="411" y="178"/>
			<point x="368" y="108"/>
		</contour>
		<contour>
			<point x="487" y="-178" type="curve" smooth="yes"/>
			<point x="529" y="-178"/>
			<point x="561" y="-169"/>
			<point x="583" y="-157" type="curve"/>
			<point x="557" y="-47" type="line"/>
			<point x="544" y="-54"/>
			<point x="525" y="-60"/>
			<point x="505" y="-60" type="curve" smooth="yes"/>
			<point x="452" y="-60"/>
			<point x="397" y="-41"/>
			<point x="378" y="19" type="curve"/>
			<point x="229" y="4" type="line"/>
			<point x="268" y="-102"/>
			<point x="357" y="-178"/>
		</contour>
	</outline>
	<anchor name="aboveUC" x="305" y="674"/>
</glyph>
<glyph name="bracketleft" format="2">
	<unicode hex="005B"/>
	<advance width="600"/>
	<outline>
		<contour>
			<point x="200" y="-152" type="line"/>
			<point x="496" y="-152" type="line"/>
			<point x="496" y="-74" type="line"/>
			<point x="312" y="-74" type="line"/>
			<point x="312" y="630" type="line"/>
			<point x="496" y="630" type="line"/>
			<point x="496" y="708" type="line"/>
			<point x="200" y="708" type="line"/>
		</contour>
	</outline>
</glyph>
<glyph name="h" format="2">
	<unicode hex="0068"/>
	<advance width="600"/>
	<outline>
		<contour>
			<point x="72" y="0" type="line"/>
			<point x="219" y="0" type="line"/>
			<point x="219" y="331" type="line"/>
			<point x="254" y="365"/>
			<point x="280" y="383"/>
			<point x="320" y="383" type="curve" smooth="yes"/>
			<point x="374" y="383"/>
			<point x="393" y="353"/>
			<point x="393" y="287" type="curve" smooth="yes"/>
			<point x="393" y="0" type="line"/>
			<point x="540" y="0" type="line"/>
			<point x="540" y="306" type="line" smooth="yes"/>
			<point x="540" y="431"/>
			<point x="490" y="508"/>
			<point x="379" y="508" type="curve" smooth="yes"/>
			<point x="304" y="508"/>
			<point x="251" y="472"/>
			<point x="214" y="434" type="curve"/>
			<point x="211" y="434" type="line"/>
			<point x="219" y="529" type="line"/>
			<point x="219" y="701" type="line"/>
			<point x="72" y="701" type="line"/>
		</contour>
	</outline>
	<anchor name="aboveUC" x="145" y="732"/>
	<anchor name="baseLC" x="145" y="0"/>
	<anchor name="belowLC" x="308" y="-20"/>
</glyph>
<glyph name="k" format="2">
	<unicode hex="006B"/>
	<advance width="600"/>
	<outline>
		<contour>
			<point x="76" y="0" type="line"/>
			<point x="223" y="0" type="line"/>
			<point x="223" y="125" type="line"/>
			<point x="570" y="496" type="line"/>
			<point x="409" y="496" type="line"/>
			<point x="227" y="296" type="line"/>
			<point x="223" y="296" type="line"/>
			<point x="223" y="701" type="line"/>
			<point x="76" y="701" type="line"/>
		</contour>
		<contour>
			<point x="426" y="0" type="line"/>
			<point x="585" y="0" type="line"/>
			<point x="366" y="316" type="line"/>
			<point x="282" y="225" type="line"/>
		</contour>
	</outline>
	<anchor name="aboveUC" x="165" y="732"/>
	<anchor name="belowLC" x="324" y="-20"/>
</glyph>
<glyph name="s" format="2">
	<unicode hex="0073"/>
	<advance width="600"/>
	<outline>
		<contour>
			<point x="296" y="-12" type="curve" smooth="yes"/>
			<point x="455" y="-12"/>
			<point x="540" y="58"/>
			<point x="540" y="148" type="curve" smooth="yes"/>
			<point x="540" y="229"/>
			<point x="498" y="272"/>
			<point x="345" y="307" type="curve" smooth="yes"/>
			<point x="261" y="326"/>
			<point x="230" y="332"/>
			<point x="230" y="360" type="curve" smooth="yes"/>
			<point x="230" y="383"/>
			<point x="253" y="399"/>
			<point x="299" y="399" type="curve" smooth="yes"/>
			<point x="354" y="399"/>
			<point x="411" y="382"/>
			<point x="461" y="352" type="curve"/>
			<point x="527" y="440" type="line"/>
			<point x="475" y="473"/>
			<point x="401" y="508"/>
			<point x="312" y="508" type="curve" smooth="yes"/>
			<point x="171" y="508"/>
			<point x="84" y="445"/>
			<point x="84" y="353" type="curve" smooth="yes"/>
			<point x="84" y="276"/>
			<point x="138" y="227"/>
			<point x="273" y="198" type="curve" smooth="yes"/>
			<point x="370" y="177"/>
			<point x="395" y="167"/>
			<point x="395" y="139" type="curve" smooth="yes"/>
			<point x="395" y="115"/>
			<point x="370" y="97"/>
			<point x="316" y="97" type="curve" smooth="yes"/>
			<point x="245" y="97"/>
			<point x="177" y="118"/>
			<point x="116" y="156" type="curve"/>
			<point x="53" y="64" type="line"/>
			<point x="116" y="22"/>
			<point x="207" y="-12"/>
		</contour>
	</outline>
	<anchor name="aboveLC" x="312" y="516"/>
	<anchor name="baseLC" x="311" y="0"/>
	<anchor name="belowLC" x="307" y="-20"/>
</glyph>
<glyph name="t" format="2">
	<unicode hex="0074"/>
	<advance width="600"/>
	<outline>
		<contour>
			<point x="388" y="-12" type="curve" smooth="yes"/>
			<point x="454" y="-12"/>
			<point x="506" y="2"/>
			<point x="550" y="15" type="curve"/>
			<point x="524" y="121" type="line"/>
			<point x="494" y="111"/>
			<point x="463" y="103"/>
			<point x="426" y="103" type="curve" smooth="yes"/>
			<point x="353" y="103"/>
			<point x="321" y="132"/>
			<point x="321" y="207" type="curve" smooth="yes"/>
			<point x="321" y="381" type="line"/>
			<point x="531" y="381" type="line"/>
			<point x="531" y="496" type="line"/>
			<point x="321" y="496" type="line"/>
			<point x="321" y="648" type="line"/>
			<point x="200" y="648" type="line"/>
			<point x="181" y="496" type="line"/>
			<point x="49" y="490" type="line"/>
			<point x="49" y="381" type="line"/>
			<point x="174" y="381" type="line"/>
			<point x="174" y="206" type="line" smooth="yes"/>
			<point x="174" y="76"/>
			<point x="230" y="-12"/>
		</contour>
	</outline>
	<anchor name="aboveLC" x="263" y="658"/>
	<anchor name="baseLC" x="375" y="0"/>
	<anchor name="belowLC" x="369" y="-20"/>
</glyph>
<glyph name="w" format="2">
	<unicode hex="0077"/>
	<advance width="600"/>
	<outline>
		<contour>
			<point x="85" y="0" type="line"/>
			<point x="255" y="0" type="line"/>
			<point x="281" y="161" type="line" smooth="yes"/>
			<point x="289" y="223"/>
			<point x="294" y="266"/>
			<point x="298" y="308" type="curve"/>
			<point x="302" y="308" type="line"/>
			<point x="308" y="251"/>
			<point x="314" y="204"/>
			<point x="320" y="161" type="curve" smooth="yes"/>
			<point x="347" y="0" type="line"/>
			<point x="520" y="0" type="line"/>
			<point x="596" y="496" type="line"/>
			<point x="460" y="496" type="line"/>
			<point x="432" y="266" type="line" smooth="yes"/>
			<point x="427" y="217"/>
			<point x="425" y="169"/>
			<point x="418" y="119" type="curve"/>
			<point x="414" y="119" type="line"/>
			<point x="407" y="169"/>
			<point x="399" y="217"/>
			<point x="389" y="266" type="curve" smooth="yes"/>
			<point x="357" y="430" type="line"/>
			<point x="250" y="430" type="line"/>
			<point x="219" y="266" type="line" smooth="yes"/>
			<point x="209" y="219"/>
			<point x="202" y="169"/>
			<point x="196" y="119" type="curve"/>
			<point x="193" y="119" type="line"/>
			<point x="187" y="169"/>
			<point x="183" y="217"/>
			<point x="177" y="266" type="curve" smooth="yes"/>
			<point x="146" y="496" type="line"/>
			<point x="4" y="496" type="line"/>
		</contour>
	</outline>
	<anchor name="aboveLC" x="300" y="516"/>
	<anchor name="belowLC" x="300" y="-20"/>
</glyph>
<glyph name="x" format="2">
	<unicode hex="0078"/>
	<advance width="600"/>
	<outline>
		<contour>
			<point x="37" y="0" type="line"/>
			<point x="191" y="0" type="line"/>
			<point x="240" y="82" type="line" smooth="yes"/>
			<point x="255" y="111"/>
			<point x="271" y="140"/>
			<point x="286" y="168" type="curve"/>
			<point x="290" y="168" type="line"/>
			<point x="308" y="140"/>
			<point x="329" y="110"/>
			<point x="347" y="82" type="curve" smooth="yes"/>
			<point x="404" y="0" type="line"/>
			<point x="562" y="0" type="line"/>
			<point x="390" y="241" type="line"/>
			<point x="552" y="496" type="line"/>
			<point x="398" y="496" type="line"/>
			<point x="354" y="416" type="line" smooth="yes"/>
			<point x="341" y="389"/>
			<point x="326" y="359"/>
			<point x="313" y="331" type="curve"/>
			<point x="309" y="331" type="line"/>
			<point x="292" y="359"/>
			<point x="272" y="388"/>
			<point x="257" y="416" type="curve" smooth="yes"/>
			<point x="206" y="496" type="line"/>
			<point x="48" y="496" type="line"/>
			<point x="209" y="258" type="line"/>
		</contour>
	</outline>
	<anchor name="aboveLC" x="300" y="516"/>
	<anchor name="baseLC" x="473" y="0"/>
	<anchor name="belowLC" x="300" y="-20"/>
</glyph>
<glyph name="exclamdown" format="2">
	<unicode hex="00A1"/>
	<advance width="600"/>
	<outline>
		<contour>
			<point x="227" y="-174" type="line"/>
			<point x="373" y="-174" type="line"/>
			<point x="368" y="-41" type="line"/>
			<point x="348" y="241" type="line"/>
			<point x="252" y="241" type="line"/>
			<point x="232" y="-41" type="line"/>
		</contour>
		<contour>
			<point x="300" y="306" type="curve" smooth="yes"/>
			<point x="357" y="306"/>
			<point x="400" y="347"/>
			<point x="400" y="406" type="curve" smooth="yes"/>
			<point x="400" y="466"/>
			<point x="357" y="508"/>
			<point x="300" y="508" type="curve" smooth="yes"/>
			<point x="243" y="508"/>
			<point x="200" y="466"/>
			<point x="200" y="406" type="curve" smooth="yes"/>
			<point x="200" y="347"/>
			<point x="243" y="306"/>
		</contour>
	</outline>
</glyph>
<glyph name="registered" format="2">
	<unicode hex="00AE"/>
	<advance width="600"/>
	<outline>
		<contour>
			<point x="299" y="311" type="curve" smooth="yes"/>
			<point x="409" y="311"/>
			<point x="497" y="395"/>
			<point x="497" y="513" type="curve" smooth="yes"/>
			<point x="497" y="631"/>
			<point x="409" y="715"/>
			<point x="299" y="715" type="curve" smooth="yes"/>
			<point x="190" y="715"/>
			<point x="101" y="631"/>
			<point x="101" y="513" type="curve" smooth="yes"/>
			<point x="101" y="395"/>
			<point x="190" y="311"/>
		</contour>
		<contour>
			<point x="299" y="360" type="curve" smooth="yes"/>
			<point x="215" y="360"/>
			<point x="155" y="420"/>
			<point x="155" y="513" type="curve" smooth="yes"/>
			<point x="155" y="606"/>
			<point x="215" y="666"/>
			<point x="299" y="666" type="curve" smooth="yes"/>
			<point x="383" y="666"/>
			<point x="443" y="606"/>
			<point x="443" y="513" type="curve" smooth="yes"/>
			<point x="443" y="420"/>
			<point x="383" y="360"/>
		</contour>
		<contour>
			<point x="218" y="416" type="line"/>
			<point x="276" y="416" type="line"/>
			<point x="276" y="476" type="line"/>
			<point x="305" y="476" type="line"/>
			<point x="335" y="416" type="line"/>
			<point x="395" y="416" type="line"/>
			<point x="353" y="493" type="line"/>
			<point x="377" y="504"/>
			<point x="388" y="524"/>
			<point x="388" y="547" type="curve" smooth="yes"/>
			<point x="388" y="592"/>
			<point x="354" y="613"/>
			<point x="307" y="613" type="curve" smooth="yes"/>
			<point x="218" y="613" type="line"/>
		</contour>
		<contour>
			<point x="276" y="516" type="line"/>
			<point x="276" y="570" type="line"/>
			<point x="297" y="570" type="line" smooth="yes"/>
			<point x="317" y="570"/>
			<point x="327" y="558"/>
			<point x="327" y="544" type="curve" smooth="yes"/>
			<point x="327" y="529"/>
			<point x="317" y="516"/>
			<point x="296" y="516" type="curve" smooth="yes"/>
		</contour>
	</outline>
</glyph>
<glyph name="AE" format="2">
	<unicode hex="00C6"/>
	<advance width="600"/>
	<outline>
		<contour>
			<point x="-3" y="0" type="line"/>
			<point x="148" y="0" type="line"/>
			<point x="255" y="356" type="line" smooth="yes"/>
			<point x="271" y="413"/>
			<point x="291" y="476"/>
			<point x="308" y="541" type="curve"/>
			<point x="311" y="541" type="line"/>
			<point x="311" y="0" type="line"/>
			<point x="595" y="0" type="line"/>
			<point x="595" y="124" type="line"/>
			<point x="441" y="124" type="line"/>
			<point x="441" y="275" type="line"/>
			<point x="559" y="275" type="line"/>
			<point x="559" y="399" type="line"/>
			<point x="441" y="399" type="line"/>
			<point x="441" y="528" type="line"/>
			<point x="586" y="528" type="line"/>
			<point x="586" y="652" type="line"/>
			<point x="215" y="652" type="line"/>
		</contour>
		<contour>
			<point x="132" y="149" type="line"/>
			<point x="368" y="149" type="line"/>
			<point x="368" y="263" type="line"/>
			<point x="132" y="263" type="line"/>
		</contour>
	</outline>
	<anchor name="aboveUC" x="391" y="672"/>
	<anchor name="baseLC" x="468" y="0"/>
	<anchor name="belowLC" x="332" y="-20"/>
</glyph>
<glyph name="Hbar" format="2">
	<unicode hex="0126"/>
	<advance width="600"/>
	<outline>
		<contour>
			<point x="3" y="484" type="line"/>
			<point x="597" y="484" type="line"/>
			<point x="597" y="559" type="line"/>
			<point x="70" y="559" type="line"/>
			<point x="3" y="553" type="line"/>
		</contour>
		<component base="H"/>
	</outline>
</glyph>
<glyph name="hbar" format="2">
	<unicode hex="0127"/>
	<advance width="600"/>
	<outline>
		<contour>
			<point x="72" y="0" type="line"/>
			<point x="219" y="0" type="line"/>
			<point x="219" y="311" type="line"/>
			<point x="254" y="345"/>
			<point x="280" y="363"/>
			<point x="320" y="363" type="curve" smooth="yes"/>
			<point x="374" y="363"/>
			<point x="393" y="333"/>
			<point x="393" y="267" type="curve" smooth="yes"/>
			<point x="393" y="0" type="line"/>
			<point x="540" y="0" type="line"/>
			<point x="540" y="286" type="line" smooth="yes"/>
			<point x="540" y="411"/>
			<point x="490" y="488"/>
			<point x="379" y="488" type="curve" smooth="yes"/>
			<point x="304" y="488"/>
			<point x="251" y="452"/>
			<point x="214" y="414" type="curve"/>
			<point x="210" y="414" type="line"/>
			<point x="219" y="510" type="line"/>
			<point x="219" y="700" type="line"/>
			<point x="72" y="700" type="line"/>
		</contour>
		<contour>
			<point x="6" y="553" type="line"/>
			<point x="401" y="553" type="line"/>
			<point x="401" y="629" type="line"/>
			<point x="82" y="629" type="line"/>
			<point x="6" y="623" type="line"/>
		</contour>
	</outline>
</glyph>
<glyph name="dotlessi" format="2">
	<unicode hex="0131"/>
	<advance width="600"/>
	<outline>
		<contour>
			<point x="278" y="0" type="line"/>
			<point x="425" y="0" type="line"/>
			<point x="425" y="496" type="line"/>
			<point x="79" y="496" type="line"/>
			<point x="79" y="381" type="line"/>
			<point x="278" y="381" type="line"/>
		</contour>
	</outline>
	<anchor name="aboveLC" x="345" y="516"/>
	<anchor name="baseLC" x="354" y="0"/>
	<anchor name="belowLC" x="345" y="-20"/>
	<anchor name="ogonekLC" x="352" y="0"/>
</glyph>
<glyph name="OE" format="2">
	<unicode hex="0152"/>
	<advance width="600"/>
	<outline>
		<contour>
			<point x="287" y="0" type="curve" smooth="yes"/>
			<point x="595" y="0" type="line"/>
			<point x="595" y="124" type="line"/>
			<point x="425" y="124" type="line"/>
			<point x="425" y="274" type="line"/>
			<point x="546" y="274" type="line"/>
			<point x="546" y="397" type="line"/>
			<point x="425" y="397" type="line"/>
			<point x="425" y="529" type="line"/>
			<point x="585" y="529" type="line"/>
			<point x="585" y="652" type="line"/>
			<point x="295" y="652" type="line" smooth="yes"/>
			<point x="137" y="652"/>
			<point x="19" y="553"/>
			<point x="19" y="329" type="curve" smooth="yes"/>
			<point x="19" y="105"/>
			<point x="132" y="0"/>
		</contour>
		<contour>
			<point x="278" y="119" type="line" smooth="yes"/>
			<point x="212" y="119"/>
			<point x="170" y="171"/>
			<point x="170" y="329" type="curve" smooth="yes"/>
			<point x="170" y="486"/>
			<point x="212" y="533"/>
			<point x="278" y="533" type="curve" smooth="yes"/>
			<point x="294" y="533" type="line"/>
			<point x="294" y="119" type="line"/>
		</contour>
	</outline>
	<anchor name="aboveUC" x="374" y="672"/>
	<anchor name="baseLC" x="429" y="0"/>
</glyph>
<glyph name="Tbar" format="2">
	<unicode hex="0166"/>
	<advance width="600"/>
	<outline>
		<contour>
			<point x="93" y="283" type="line"/>
			<point x="507" y="283" type="line"/>
			<point x="507" y="358" type="line"/>
			<point x="187" y="358" type="line"/>
			<point x="93" y="352" type="line"/>
		</contour>
		<component base="T"/>
	</outline>
	<anchor name="aboveUC" x="300" y="672"/>
	<anchor name="belowLC" x="300" y="-20"/>
</glyph>
<glyph name="tbar" format="2">
	<unicode hex="0167"/>
	<advance width="600"/>
	<outline>
		<contour>
			<point x="50" y="217" type="line"/>
			<point x="511" y="217" type="line"/>
			<point x="511" y="293" type="line"/>
			<point x="185" y="293" type="line"/>
			<point x="50" y="287" type="line"/>
		</contour>
		<component base="t"/>
	</outline>
	<anchor name="aboveLC" x="263" y="658"/>
	<anchor name="belowLC" x="368" y="-20"/>
</glyph>
<glyph name="Dhook" format="2">
	<unicode hex="018A"/>
	<advance width="600"/>
	<outline>
		<contour>
			<point x="188" y="0" type="line"/>
			<point x="314" y="0" type="line" smooth="yes"/>
			<point x="471" y="0"/>
			<point x="581" y="105"/>
			<point x="581" y="335" type="curve" smooth="yes"/>
			<point x="581" y="560"/>
			<point x="471" y="664"/>
			<point x="280" y="664" type="curve" smooth="yes"/>
			<point x="86" y="664"/>
			<point x="4" y="567"/>
			<point x="4" y="431" type="curve" smooth="yes"/>
			<point x="4" y="341"/>
			<point x="45" y="287"/>
			<point x="114" y="253" type="curve"/>
			<point x="169" y="347" type="line"/>
			<point x="134" y="368"/>
			<point x="116" y="394"/>
			<point x="116" y="440" type="curve" smooth="yes"/>
			<point x="116" y="499"/>
			<point x="152" y="545"/>
			<point x="243" y="545" type="curve" smooth="yes"/>
			<point x="303" y="545" type="line" smooth="yes"/>
			<point x="395" y="545"/>
			<point x="444" y="491"/>
			<point x="444" y="335" type="curve" smooth="yes"/>
			<point x="444" y="173"/>
			<point x="400" y="119"/>
			<point x="334" y="119" type="curve" smooth="yes"/>
			<point x="321" y="119" type="line"/>
			<point x="321" y="586" type="line"/>
			<point x="188" y="586" type="line"/>
		</contour>
	</outline>
	<anchor name="aboveUC" x="345" y="672"/>
	<anchor name="belowLC" x="370" y="-20"/>
</glyph>
<glyph name="Ghook" format="2">
	<unicode hex="0193"/>
	<advance width="600"/>
	<outline>
		<contour>
			<point x="536" y="581" type="line"/>
			<point x="518" y="603"/>
			<point x="503" y="623"/>
			<point x="503" y="655" type="curve" smooth="yes"/>
			<point x="503" y="686"/>
			<point x="524" y="703"/>
			<point x="554" y="703" type="curve" smooth="yes"/>
			<point x="565" y="703"/>
			<point x="572" y="700"/>
			<point x="582" y="696" type="curve"/>
			<point x="608" y="805" type="line"/>
			<point x="588" y="812"/>
			<point x="564" y="818"/>
			<point x="523" y="818" type="curve" smooth="yes"/>
			<point x="435" y="818"/>
			<point x="382" y="758"/>
			<point x="382" y="685" type="curve" smooth="yes"/>
			<point x="382" y="653"/>
			<point x="396" y="612"/>
			<point x="417" y="577" type="curve"/>
		</contour>
		<component base="G"/>
	</outline>
</glyph>
<glyph name="ohorn" format="2">
	<unicode hex="01A1"/>
	<advance width="600"/>
	<outline>
		<contour>
			<point x="463" y="436" type="line"/>
			<point x="538" y="458"/>
			<point x="593" y="510"/>
			<point x="593" y="596" type="curve" smooth="yes"/>
			<point x="593" y="636"/>
			<point x="580" y="675"/>
			<point x="563" y="699" type="curve"/>
			<point x="455" y="651" type="line"/>
			<point x="465" y="637"/>
			<point x="470" y="612"/>
			<point x="470" y="586" type="curve" smooth="yes"/>
			<point x="470" y="523"/>
			<point x="439" y="496"/>
			<point x="394" y="484" type="curve"/>
		</contour>
		<component base="o"/>
	</outline>
	<anchor name="aboveLC" x="300" y="516"/>
	<anchor name="belowLC" x="300" y="-20"/>
</glyph>
<glyph name="Bstroke" format="2">
	<unicode hex="0243"/>
	<advance width="600"/>
	<outline>
		<contour>
			<point x="84" y="0" type="line"/>
			<point x="313" y="0" type="line" smooth="yes"/>
			<point x="455" y="0"/>
			<point x="564" y="62"/>
			<point x="564" y="199" type="curve" smooth="yes"/>
			<point x="564" y="291"/>
			<point x="515" y="342"/>
			<point x="422" y="360" type="curve"/>
			<point x="422" y="364" type="line"/>
			<point x="498" y="383"/>
			<point x="532" y="439"/>
			<point x="532" y="495" type="curve" smooth="yes"/>
			<point x="532" y="613"/>
			<point x="430" y="652"/>
			<point x="295" y="652" type="curve" smooth="yes"/>
			<point x="84" y="652" type="line"/>
		</contour>
		<contour>
			<point x="9" y="171" type="line"/>
			<point x="337" y="171" type="line"/>
			<point x="337" y="246" type="line"/>
			<point x="86" y="246" type="line"/>
			<point x="9" y="240" type="line"/>
		</contour>
		<contour>
			<point x="231" y="108" type="line"/>
			<point x="231" y="306" type="line"/>
			<point x="301" y="306" type="line" smooth="yes"/>
			<point x="382" y="306"/>
			<point x="418" y="278"/>
			<point x="418" y="210" type="curve" smooth="yes"/>
			<point x="418" y="142"/>
			<point x="381" y="108"/>
			<point x="301" y="108" type="curve" smooth="yes"/>
		</contour>
		<contour>
			<point x="231" y="397" type="line"/>
			<point x="231" y="544" type="line"/>
			<point x="289" y="544" type="line" smooth="yes"/>
			<point x="357" y="544"/>
			<point x="391" y="525"/>
			<point x="391" y="477" type="curve" smooth="yes"/>
			<point x="391" y="425"/>
			<point x="359" y="397"/>
			<point x="288" y="397" type="curve" smooth="yes"/>
		</contour>
	</outline>
</glyph>
<glyph name="dotlessjstroke" format="2">
	<unicode hex="025F"/>
	<advance width="600"/>
	<outline>
		<contour>
			<point x="105" y="187" type="line"/>
			<point x="558" y="187" type="line"/>
			<point x="558" y="263" type="line"/>
			<point x="279" y="263" type="line"/>
			<point x="105" y="257" type="line"/>
		</contour>
		<component base="dotlessj"/>
	</outline>
	<anchor name="aboveLC" x="345" y="516"/>
	<anchor name="belowLC" x="246" y="-205"/>
</glyph>
<glyph name="nretroflex" format="2">
	<unicode hex="0273"/>
	<advance width="600"/>
	<outline>
		<contour>
			<point x="550" y="-187" type="curve" smooth="yes"/>
			<point x="586" y="-187"/>
			<point x="609" y="-181"/>
			<point x="628" y="-173" type="curve"/>
			<point x="601" y="-65" type="line"/>
			<point x="591" y="-69"/>
			<point x="583" y="-71"/>
			<point x="573" y="-71" type="curve" smooth="yes"/>
			<point x="541" y="-71"/>
			<point x="530" y="-50"/>
			<point x="530" y="-1" type="curve"/>
			<point x="530" y="306" type="line" smooth="yes"/>
			<point x="530" y="431"/>
			<point x="482" y="508"/>
			<point x="371" y="508" type="curve" smooth="yes"/>
			<point x="301" y="508"/>
			<point x="250" y="472"/>
			<point x="207" y="430" type="curve"/>
			<point x="203" y="430" type="line"/>
			<point x="192" y="496" type="line"/>
			<point x="72" y="496" type="line"/>
			<point x="72" y="0" type="line"/>
			<point x="219" y="0" type="line"/>
			<point x="219" y="331" type="line"/>
			<point x="254" y="365"/>
			<point x="277" y="383"/>
			<point x="316" y="383" type="curve" smooth="yes"/>
			<point x="362" y="383"/>
			<point x="383" y="360"/>
			<point x="383" y="287" type="curve" smooth="yes"/>
			<point x="383" y="4" type="line"/>
			<point x="383" y="-100"/>
			<point x="422" y="-187"/>
		</contour>
	</outline>
	<anchor name="aboveLC" x="328" y="516"/>
	<anchor name="belowLC" x="343" y="-205"/>
</glyph>
<glyph name="rlonglegturned" format="2">
	<unicode hex="027A"/>
	<advance width="600"/>
	<outline>
		<contour>
			<point x="148" y="-12" type="curve" smooth="yes"/>
			<point x="227" y="-12"/>
			<point x="300" y="28"/>
			<point x="349" y="108" type="curve"/>
			<point x="352" y="108" type="line"/>
			<point x="364" y="0" type="line"/>
			<point x="484" y="0" type="line"/>
			<point x="484" y="701" type="line"/>
			<point x="337" y="701" type="line"/>
			<point x="337" y="238" type="line"/>
			<point x="295" y="149"/>
			<point x="231" y="117"/>
			<point x="170" y="117" type="curve" smooth="yes"/>
			<point x="133" y="117"/>
			<point x="113" y="122"/>
			<point x="82" y="132" type="curve"/>
			<point x="52" y="8" type="line"/>
			<point x="81" y="-5"/>
			<point x="104" y="-12"/>
		</contour>
	</outline>
	<anchor name="aboveUC" x="410" y="732"/>
	<anchor name="belowLC" x="285" y="-20"/>
</glyph>
<glyph name="shook" format="2">
	<unicode hex="0282"/>
	<advance width="600"/>
	<outline>
		<contour>
			<point x="214" y="-187" type="curve" smooth="yes"/>
			<point x="255" y="-187"/>
			<point x="281" y="-181"/>
			<point x="301" y="-173" type="curve"/>
			<point x="275" y="-68" type="line"/>
			<point x="262" y="-72"/>
			<point x="250" y="-75"/>
			<point x="236" y="-75" type="curve" smooth="yes"/>
			<point x="197" y="-75"/>
			<point x="182" y="-53"/>
			<point x="182" y="-13" type="curve"/>
			<point x="182" y="46" type="line"/>
			<point x="53" y="64" type="line"/>
			<point x="53" y="13" type="line" smooth="yes"/>
			<point x="53" y="-112"/>
			<point x="97" y="-187"/>
		</contour>
		<component base="s"/>
	</outline>
	<anchor name="aboveLC" x="312" y="516"/>
	<anchor name="belowLC" x="310" y="-205"/>
</glyph>
<glyph name="ysmall" format="2">
	<unicode hex="028F"/>
	<advance width="600"/>
	<outline>
		<contour>
			<point x="228" y="0" type="line"/>
			<point x="375" y="0" type="line"/>
			<point x="375" y="150" type="line"/>
			<point x="569" y="496" type="line"/>
			<point x="416" y="496" type="line"/>
			<point x="364" y="389" type="line" smooth="yes"/>
			<point x="341" y="342"/>
			<point x="325" y="303"/>
			<point x="304" y="253" type="curve"/>
			<point x="300" y="253" type="line"/>
			<point x="279" y="303"/>
			<point x="261" y="342"/>
			<point x="242" y="389" type="curve" smooth="yes"/>
			<point x="188" y="496" type="line"/>
			<point x="33" y="496" type="line"/>
			<point x="228" y="150" type="line"/>
		</contour>
	</outline>
	<anchor name="aboveLC" x="300" y="516"/>
	<anchor name="belowLC" x="300" y="-20"/>
</glyph>
<glyph name="ts" format="2">
	<unicode hex="02A6"/>
	<advance width="600"/>
	<outline>
		<contour>
			<point x="331" y="-12" type="curve" smooth="yes"/>
			<point x="524" y="-12"/>
			<point x="590" y="49"/>
			<point x="590" y="147" type="curve" smooth="yes"/>
			<point x="590" y="299"/>
			<point x="423" y="318"/>
			<point x="423" y="371" type="curve" smooth="yes"/>
			<point x="423" y="393"/>
			<point x="437" y="406"/>
			<point x="462" y="406" type="curve" smooth="yes"/>
			<point x="487" y="406"/>
			<point x="509" y="399"/>
			<point x="539" y="378" type="curve"/>
			<point x="588" y="457" type="line"/>
			<point x="549" y="491"/>
			<point x="499" y="508"/>
			<point x="446" y="508" type="curve" smooth="yes"/>
			<point x="350" y="508"/>
			<point x="287" y="457"/>
			<point x="287" y="377" type="curve" smooth="yes"/>
			<point x="287" y="244"/>
			<point x="461" y="231"/>
			<point x="461" y="151" type="curve" smooth="yes"/>
			<point x="461" y="117"/>
			<point x="433" y="97"/>
			<point x="345" y="97" type="curve" smooth="yes"/>
			<point x="266" y="97"/>
			<point x="222" y="121"/>
			<point x="222" y="190" type="curve" smooth="yes"/>
			<point x="222" y="381" type="line"/>
			<point x="410" y="381" type="line"/>
			<point x="410" y="496" type="line"/>
			<point x="222" y="496" type="line"/>
			<point x="222" y="648" type="line"/>
			<point x="100" y="648" type="line"/>
			<point x="81" y="496" type="line"/>
			<point x="7" y="490" type="line"/>
			<point x="7" y="381" type="line"/>
			<point x="75" y="381" type="line"/>
			<point x="75" y="187" type="line" smooth="yes"/>
			<point x="75" y="66"/>
			<point x="148" y="-12"/>
		</contour>
	</outline>
	<anchor name="aboveLC" x="330" y="658"/>
	<anchor name="belowLC" x="338" y="-20"/>
</glyph>
<glyph name="ringhalfleftmod" format="2">
	<unicode hex="02BF"/>
	<advance width="600"/>
	<outline>
		<contour>
			<point x="378" y="538" type="curve"/>
			<point x="378" y="617" type="line"/>
			<point x="314" y="617"/>
			<point x="285" y="641"/>
			<point x="285" y="685" type="curve" smooth="yes"/>
			<point x="285" y="729"/>
			<point x="314" y="753"/>
			<point x="378" y="753" type="curve"/>
			<point x="378" y="832" type="line"/>
			<point x="235" y="836"/>
			<point x="179" y="775"/>
			<point x="179" y="685" type="curve" smooth="yes"/>
			<point x="179" y="595"/>
			<point x="235" y="534"/>
		</contour>
	</outline>
</glyph>
<glyph name="glottalstopreversedmod" format="2">
	<unicode hex="02C1"/>
	<advance width="600"/>
	<outline>
		<contour>
			<point x="260" y="451" type="line"/>
			<point x="365" y="451" type="line"/>
			<point x="365" y="567" type="line"/>
			<point x="281" y="616"/>
			<point x="251" y="647"/>
			<point x="251" y="691" type="curve" smooth="yes"/>
			<point x="251" y="730"/>
			<point x="283" y="750"/>
			<point x="326" y="750" type="curve" smooth="yes"/>
			<point x="361" y="750"/>
			<point x="389" y="732"/>
			<point x="412" y="708" type="curve"/>
			<point x="463" y="772" type="line"/>
			<point x="431" y="807"/>
			<point x="384" y="833"/>
			<point x="316" y="833" type="curve" smooth="yes"/>
			<point x="226" y="833"/>
			<point x="147" y="787"/>
			<point x="147" y="695" type="curve" smooth="yes"/>
			<point x="147" y="621"/>
			<point x="195" y="580"/>
			<point x="260" y="531" type="curve"/>
		</contour>
	</outline>
</glyph>
<glyph name="verticallinemod" format="2">
	<unicode hex="02C8"/>
	<advance width="600"/>
	<outline>
		<contour>
			<point x="255" y="377" type="line"/>
			<point x="345" y="377" type="line"/>
			<point x="376" y="740" type="line"/>
			<point x="224" y="740" type="line"/>
		</contour>
	</outline>
</glyph>
<glyph name="colontriangularmod" format="2">
	<unicode hex="02D0"/>
	<advance width="600"/>
	<outline>
		<contour>
			<point x="164" y="0" type="line"/>
			<point x="436" y="0" type="line"/>
			<point x="307" y="218" type="line"/>
			<point x="293" y="218" type="line"/>
		</contour>
		<contour>
			<point x="293" y="316" type="line"/>
			<point x="307" y="316" type="line"/>
			<point x="436" y="534" type="line"/>
			<point x="164" y="534" type="line"/>
		</contour>
	</outline>
</glyph>
<glyph name="ringcmb" format="2">
	<unicode hex="030A"/>
	<advance width="600"/>
	<outline>
		<contour>
			<point x="300" y="568" type="curve" smooth="yes"/>
			<point x="387" y="568"/>
			<point x="432" y="615"/>
			<point x="432" y="672" type="curve" smooth="yes"/>
			<point x="432" y="728"/>
			<point x="387" y="775"/>
			<point x="300" y="775" type="curve" smooth="yes"/>
			<point x="213" y="775"/>
			<point x="168" y="728"/>
			<point x="168" y="672" type="curve" smooth="yes"/>
			<point x="168" y="615"/>
			<point x="213" y="568"/>
		</contour>
		<contour>
			<point x="300" y="623" type="curve" smooth="yes"/>
			<point x="276" y="623"/>
			<point x="257" y="643"/>
			<point x="257" y="672" type="curve" smooth="yes"/>
			<point x="257" y="700"/>
			<point x="276" y="720"/>
			<point x="300" y="720" type="curve" smooth="yes"/>
			<point x="324" y="720"/>
			<point x="343" y="700"/>
			<point x="343" y="672" type="curve" smooth="yes"/>
			<point x="343" y="643"/>
			<point x="324" y="623"/>
		</contour>
	</outline>
	<anchor name="_aboveLC" x="300" y="516"/>
	<anchor name="aboveLC" x="300" y="714"/>
</glyph>
<glyph name="lefttackbelowcmb" format="2">
	<unicode hex="0318"/>
	<advance width="600"/>
	<outline>
		<contour>
			<point x="330" y="-257" type="line"/>
			<point x="414" y="-257" type="line"/>
			<point x="414" y="-54" type="line"/>
			<point x="330" y="-54" type="line"/>
			<point x="330" y="-120" type="line"/>
			<point x="213" y="-120" type="line"/>
			<point x="213" y="-191" type="line"/>
			<point x="330" y="-191" type="line"/>
		</contour>
	</outline>
	<anchor name="_belowLC" x="300" y="-20"/>
</glyph>
<glyph name="righttackbelowcmb" format="2">
	<unicode hex="0319"/>
	<advance width="600"/>
	<outline>
		<contour>
			<point x="186" y="-257" type="line"/>
			<point x="270" y="-257" type="line"/>
			<point x="270" y="-191" type="line"/>
			<point x="387" y="-191" type="line"/>
			<point x="387" y="-120" type="line"/>
			<point x="270" y="-120" type="line"/>
			<point x="270" y="-54" type="line"/>
			<point x="186" y="-54" type="line"/>
		</contour>
	</outline>
	<anchor name="_belowLC" x="300" y="-20"/>
</glyph>
<glyph name="downtackbelowcmb" format="2">
	<unicode hex="031E"/>
	<advance width="600"/>
	<outline>
		<contour>
			<point x="258" y="-257" type="line"/>
			<point x="342" y="-257" type="line"/>
			<point x="342" y="-152" type="line"/>
			<point x="427" y="-152" type="line"/>
			<point x="427" y="-82" type="line"/>
			<point x="173" y="-82" type="line"/>
			<point x="173" y="-152" type="line"/>
			<point x="258" y="-152" type="line"/>
		</contour>
	</outline>
	<anchor name="_belowLC" x="300" y="-20"/>
</glyph>
<glyph name="minusbelowcmb" format="2">
	<unicode hex="0320"/>
	<advance width="600"/>
	<outline>
		<contour>
			<point x="173" y="-154" type="line"/>
			<point x="427" y="-154" type="line"/>
			<point x="427" y="-83" type="line"/>
			<point x="173" y="-83" type="line"/>
		</contour>
	</outline>
	<anchor name="_belowLC" x="300" y="-20"/>
</glyph>
<glyph name="verticallinebelowcmb" format="2">
	<unicode hex="0329"/>
	<advance width="600"/>
	<outline>
		<contour>
			<point x="241" y="-269" type="line"/>
			<point x="359" y="-269" type="line"/>
			<point x="353" y="-64" type="line"/>
			<point x="247" y="-64" type="line"/>
		</contour>
	</outline>
	<anchor name="_belowLC" x="300" y="-20"/>
</glyph>
<glyph name="bridgebelowcmb" format="2">
	<unicode hex="032A"/>
	<advance width="600"/>
	<outline>
		<contour>
			<point x="169" y="-220" type="line"/>
			<point x="245" y="-220" type="line"/>
			<point x="245" y="-149" type="line"/>
			<point x="355" y="-149" type="line"/>
			<point x="355" y="-220" type="line"/>
			<point x="431" y="-220" type="line"/>
			<point x="431" y="-78" type="line"/>
			<point x="169" y="-78" type="line"/>
		</contour>
	</outline>
	<anchor name="_belowLC" x="300" y="-20"/>
</glyph>
<glyph name="squarebelowcmb" format="2">
	<unicode hex="033B"/>
	<advance width="600"/>
	<outline>
		<contour>
			<point x="169" y="-247" type="line"/>
			<point x="431" y="-247" type="line"/>
			<point x="431" y="-66" type="line"/>
			<point x="169" y="-66" type="line"/>
		</contour>
		<contour>
			<point x="245" y="-193" type="line"/>
			<point x="245" y="-119" type="line"/>
			<point x="355" y="-119" type="line"/>
			<point x="355" y="-193" type="line"/>
		</contour>
	</outline>
	<anchor name="_belowLC" x="300" y="-20"/>
</glyph>
<glyph name="tonoscmb" format="2">
	<unicode hex="0341"/>
	<advance width="600"/>
	<outline>
		<contour>
			<point x="344" y="558" type="line"/>
			<point x="424" y="808" type="line"/>
			<point x="280" y="830" type="line"/>
			<point x="245" y="573" type="line"/>
		</contour>
	</outline>
	<anchor name="_aboveLC" x="300" y="516"/>
</glyph>
<glyph name="breveinverteddoublecmb" format="2">
	<unicode hex="0361"/>
	<advance width="600"/>
	<outline>
		<contour>
			<point x="-119" y="586" type="line"/>
			<point x="11" y="659"/>
			<point x="175" y="683"/>
			<point x="300" y="683" type="curve" smooth="yes"/>
			<point x="425" y="683"/>
			<point x="589" y="659"/>
			<point x="719" y="586" type="curve"/>
			<point x="757" y="653" type="line"/>
			<point x="620" y="737"/>
			<point x="460" y="777"/>
			<point x="300" y="777" type="curve" smooth="yes"/>
			<point x="140" y="777"/>
			<point x="-20" y="737"/>
			<point x="-157" y="653" type="curve"/>
		</contour>
	</outline>
</glyph>
<glyph name="Sigma" format="2">
	<unicode hex="03A3"/>
	<advance width="600"/>
	<outline>
		<contour>
			<point x="63" y="0" type="line"/>
			<point x="540" y="0" type="line"/>
			<point x="540" y="124" type="line"/>
			<point x="247" y="124" type="line"/>
			<point x="413" y="333" type="line"/>
			<point x="250" y="528" type="line"/>
			<point x="513" y="528" type="line"/>
			<point x="513" y="652" type="line"/>
			<point x="66" y="652" type="line"/>
			<point x="66" y="563" type="line"/>
			<point x="265" y="329" type="line"/>
			<point x="63" y="89" type="line"/>
		</contour>
	</outline>
</glyph>
<glyph name="eta" format="2">
	<unicode hex="03B7"/>
	<advance width="600"/>
	<outline>
		<contour>
			<point x="383" y="-177" type="curve"/>
			<point x="531" y="-177" type="line"/>
			<point x="531" y="308" type="line" smooth="yes"/>
			<point x="531" y="432"/>
			<point x="490" y="508"/>
			<point x="376" y="508" type="curve" smooth="yes"/>
			<point x="303" y="508"/>
			<point x="255" y="468"/>
			<point x="210" y="412" type="curve"/>
			<point x="206" y="412" type="line"/>
			<point x="195" y="496" type="line"/>
			<point x="65" y="496" type="line"/>
			<point x="74" y="442"/>
			<point x="76" y="383"/>
			<point x="76" y="344" type="curve" smooth="yes"/>
			<point x="76" y="0" type="line"/>
			<point x="223" y="0" type="line"/>
			<point x="223" y="313" type="line"/>
			<point x="257" y="362"/>
			<point x="287" y="383"/>
			<point x="325" y="383" type="curve" smooth="yes"/>
			<point x="375" y="383"/>
			<point x="393" y="361"/>
			<point x="393" y="289" type="curve" smooth="yes"/>
			<point x="393" y="175"/>
			<point x="388" y="-21"/>
		</contour>
	</outline>
	<anchor name="aboveLC" x="322" y="516"/>
	<anchor name="belowLC" x="142" y="-20"/>
</glyph>
<glyph name="chi" format="2">
	<unicode hex="03C7"/>
	<advance width="600"/>
	<outline>
		<contour>
			<point x="193" y="-189" type="line"/>
			<point x="305" y="48" type="line"/>
			<point x="309" y="48" type="line"/>
			<point x="435" y="-189" type="line"/>
			<point x="580" y="-157" type="line"/>
			<point x="379" y="168" type="line"/>
			<point x="553" y="496" type="line"/>
			<point x="400" y="496" type="line"/>
			<point x="309" y="294" type="line"/>
			<point x="305" y="294" type="line"/>
			<point x="186" y="508" type="line"/>
			<point x="41" y="476" type="line"/>
			<point x="234" y="165" type="line"/>
			<point x="42" y="-177" type="line"/>
		</contour>
	</outline>
</glyph>
<glyph name="beta.a" format="2">
	<unicode hex="03D0"/>
	<advance width="600"/>
	<outline>
		<contour>
			<point x="327" y="-12" type="curve" smooth="yes"/>
			<point x="453" y="-12"/>
			<point x="558" y="56"/>
			<point x="558" y="198" type="curve" smooth="yes"/>
			<point x="558" y="291"/>
			<point x="495" y="366"/>
			<point x="418" y="377" type="curve"/>
			<point x="418" y="381" type="line"/>
			<point x="473" y="409"/>
			<point x="506" y="464"/>
			<point x="506" y="531" type="curve" smooth="yes"/>
			<point x="506" y="656"/>
			<point x="401" y="711"/>
			<point x="295" y="711" type="curve" smooth="yes"/>
			<point x="142" y="711"/>
			<point x="72" y="609"/>
			<point x="72" y="474" type="curve" smooth="yes"/>
			<point x="72" y="238" type="line" smooth="yes"/>
			<point x="72" y="57"/>
			<point x="201" y="-12"/>
		</contour>
		<contour>
			<point x="322" y="115" type="curve" smooth="yes"/>
			<point x="270" y="115"/>
			<point x="209" y="149"/>
			<point x="209" y="254" type="curve" smooth="yes"/>
			<point x="209" y="312"/>
			<point x="211" y="381"/>
			<point x="214" y="457" type="curve" smooth="yes"/>
			<point x="218" y="543"/>
			<point x="238" y="597"/>
			<point x="294" y="597" type="curve" smooth="yes"/>
			<point x="330" y="597"/>
			<point x="365" y="571"/>
			<point x="365" y="517" type="curve" smooth="yes"/>
			<point x="365" y="441"/>
			<point x="331" y="401"/>
			<point x="159" y="373" type="curve"/>
			<point x="177" y="267" type="line"/>
			<point x="259" y="293"/>
			<point x="306" y="304"/>
			<point x="328" y="304" type="curve" smooth="yes"/>
			<point x="385" y="304"/>
			<point x="414" y="261"/>
			<point x="414" y="208" type="curve" smooth="yes"/>
			<point x="414" y="148"/>
			<point x="373" y="115"/>
		</contour>
	</outline>
</glyph>
<glyph name="Zhe" format="2">
	<unicode hex="0416"/>
	<advance width="600"/>
	<outline>
		<contour>
			<point x="1" y="0" type="line"/>
			<point x="137" y="0" type="line"/>
			<point x="203" y="274" type="line"/>
			<point x="240" y="274" type="line"/>
			<point x="240" y="0" type="line"/>
			<point x="360" y="0" type="line"/>
			<point x="360" y="274" type="line"/>
			<point x="397" y="274" type="line"/>
			<point x="463" y="0" type="line"/>
			<point x="599" y="0" type="line"/>
			<point x="470" y="397" type="line"/>
			<point x="360" y="397" type="line"/>
			<point x="360" y="652" type="line"/>
			<point x="240" y="652" type="line"/>
			<point x="240" y="397" type="line"/>
			<point x="130" y="397" type="line"/>
		</contour>
		<contour>
			<point x="118" y="325" type="line"/>
			<point x="229" y="345" type="line"/>
			<point x="178" y="551" type="line" smooth="yes"/>
			<point x="155" y="640"/>
			<point x="109" y="664"/>
			<point x="49" y="664" type="curve" smooth="yes"/>
			<point x="33" y="664"/>
			<point x="14" y="660"/>
			<point x="2" y="657" type="curve"/>
			<point x="24" y="520" type="line"/>
			<point x="31" y="522"/>
			<point x="38" y="524"/>
			<point x="46" y="524" type="curve" smooth="yes"/>
			<point x="65" y="524"/>
			<point x="79" y="512"/>
			<point x="88" y="475" type="curve" smooth="yes"/>
		</contour>
		<contour>
			<point x="482" y="325" type="line"/>
			<point x="512" y="475" type="line" smooth="yes"/>
			<point x="521" y="512"/>
			<point x="535" y="524"/>
			<point x="554" y="524" type="curve" smooth="yes"/>
			<point x="562" y="524"/>
			<point x="569" y="522"/>
			<point x="576" y="520" type="curve"/>
			<point x="598" y="657" type="line"/>
			<point x="586" y="660"/>
			<point x="566" y="664"/>
			<point x="550" y="664" type="curve" smooth="yes"/>
			<point x="490" y="664"/>
			<point x="445" y="640"/>
			<point x="422" y="551" type="curve" smooth="yes"/>
			<point x="371" y="345" type="line"/>
		</contour>
	</outline>
	<anchor name="aboveUC" x="300" y="672"/>
</glyph>
<glyph name="pe" format="2">
	<unicode hex="043F"/>
	<advance width="600"/>
	<outline>
		<contour>
			<point x="72" y="0" type="line"/>
			<point x="219" y="0" type="line"/>
			<point x="219" y="381" type="line"/>
			<point x="381" y="381" type="line"/>
			<point x="381" y="0" type="line"/>
			<point x="528" y="0" type="line"/>
			<point x="528" y="496" type="line"/>
			<point x="72" y="496" type="line"/>
		</contour>
	</outline>
	<anchor name="aboveLC" x="300" y="516"/>
</glyph>
<glyph name="hard" format="2">
	<unicode hex="044A"/>
	<advance width="600"/>
	<outline>
		<contour>
			<point x="166" y="0" type="line"/>
			<point x="351" y="0" type="line" smooth="yes"/>
			<point x="471" y="0"/>
			<point x="563" y="43"/>
			<point x="563" y="172" type="curve" smooth="yes"/>
			<point x="563" y="295"/>
			<point x="471" y="338"/>
			<point x="351" y="338" type="curve" smooth="yes"/>
			<point x="313" y="338" type="line"/>
			<point x="313" y="496" type="line"/>
			<point x="30" y="496" type="line"/>
			<point x="30" y="381" type="line"/>
			<point x="166" y="381" type="line"/>
		</contour>
		<contour>
			<point x="313" y="112" type="line"/>
			<point x="313" y="229" type="line"/>
			<point x="344" y="229" type="line" smooth="yes"/>
			<point x="397" y="229"/>
			<point x="422" y="210"/>
			<point x="422" y="172" type="curve" smooth="yes"/>
			<point x="422" y="131"/>
			<point x="397" y="112"/>
			<point x="344" y="112" type="curve" smooth="yes"/>
		</contour>
	</outline>
	<anchor name="aboveLC" x="240" y="516"/>
</glyph>
<glyph name="lje" format="2">
	<unicode hex="0459"/>
	<advance width="600"/>
	<outline>
		<contour>
			<point x="46" y="-12" type="curve" smooth="yes"/>
			<point x="121" y="-12"/>
			<point x="166" y="40"/>
			<point x="182" y="132" type="curve" smooth="yes"/>
			<point x="195" y="215"/>
			<point x="200" y="298"/>
			<point x="206" y="381" type="curve"/>
			<point x="257" y="381" type="line"/>
			<point x="257" y="0" type="line"/>
			<point x="380" y="0" type="line"/>
			<point x="380" y="496" type="line"/>
			<point x="97" y="496" type="line"/>
			<point x="91" y="389"/>
			<point x="85" y="296"/>
			<point x="71" y="202" type="curve" smooth="yes"/>
			<point x="62" y="142"/>
			<point x="47" y="127"/>
			<point x="31" y="127" type="curve" smooth="yes"/>
			<point x="23" y="127"/>
			<point x="17" y="129"/>
			<point x="11" y="131" type="curve"/>
			<point x="-13" y="-1" type="line"/>
			<point x="5" y="-8"/>
			<point x="23" y="-12"/>
		</contour>
		<contour>
			<point x="257" y="0" type="line"/>
			<point x="392" y="0" type="line" smooth="yes"/>
			<point x="496" y="0"/>
			<point x="576" y="43"/>
			<point x="576" y="172" type="curve" smooth="yes"/>
			<point x="576" y="295"/>
			<point x="496" y="338"/>
			<point x="392" y="338" type="curve" smooth="yes"/>
			<point x="380" y="338" type="line"/>
			<point x="380" y="496" type="line"/>
			<point x="257" y="496" type="line"/>
		</contour>
		<contour>
			<point x="380" y="112" type="line"/>
			<point x="380" y="229" type="line"/>
			<point x="385" y="229" type="line" smooth="yes"/>
			<point x="435" y="229"/>
			<point x="459" y="210"/>
			<point x="459" y="172" type="curve" smooth="yes"/>
			<point x="459" y="132"/>
			<point x="435" y="112"/>
			<point x="385" y="112" type="curve" smooth="yes"/>
		</contour>
	</outline>
</glyph>
<glyph name="yat" format="2">
	<unicode hex="0463"/>
	<advance width="600"/>
	<outline>
		<contour>
			<point x="164" y="0" type="line"/>
			<point x="349" y="0" type="line" smooth="yes"/>
			<point x="469" y="0"/>
			<point x="562" y="43"/>
			<point x="562" y="171" type="curve" smooth="yes"/>
			<point x="562" y="295"/>
			<point x="469" y="338"/>
			<point x="349" y="338" type="curve" smooth="yes"/>
			<point x="311" y="338" type="line"/>
			<point x="311" y="425" type="line"/>
			<point x="467" y="425" type="line"/>
			<point x="467" y="541" type="line"/>
			<point x="311" y="541" type="line"/>
			<point x="311" y="628" type="line"/>
			<point x="164" y="628" type="line"/>
			<point x="164" y="541" type="line"/>
			<point x="32" y="541" type="line"/>
			<point x="32" y="425" type="line"/>
			<point x="164" y="425" type="line"/>
		</contour>
		<contour>
			<point x="311" y="112" type="line"/>
			<point x="311" y="229" type="line"/>
			<point x="342" y="229" type="line" smooth="yes"/>
			<point x="395" y="229"/>
			<point x="421" y="210"/>
			<point x="421" y="172" type="curve" smooth="yes"/>
			<point x="421" y="131"/>
			<point x="395" y="112"/>
			<point x="342" y="112" type="curve" smooth="yes"/>
		</contour>
	</outline>
</glyph>
<glyph name="Fita" format="2">
	<unicode hex="0472"/>
	<advance width="600"/>
	<outline>
		<contour>
			<point x="300" y="-12" type="curve" smooth="yes"/>
			<point x="455" y="-12"/>
			<point x="562" y="108"/>
			<point x="562" y="329" type="curve" smooth="yes"/>
			<point x="562" y="549"/>
			<point x="455" y="664"/>
			<point x="300" y="664" type="curve" smooth="yes"/>
			<point x="145" y="664"/>
			<point x="38" y="550"/>
			<point x="38" y="329" type="curve" smooth="yes"/>
			<point x="38" y="108"/>
			<point x="145" y="-12"/>
		</contour>
		<contour>
			<point x="300" y="109" type="curve" smooth="yes"/>
			<point x="228" y="109"/>
			<point x="184" y="185"/>
			<point x="184" y="330" type="curve" smooth="yes"/>
			<point x="184" y="472"/>
			<point x="228" y="543"/>
			<point x="300" y="543" type="curve" smooth="yes"/>
			<point x="372" y="543"/>
			<point x="416" y="472"/>
			<point x="416" y="330" type="curve" smooth="yes"/>
			<point x="416" y="185"/>
			<point x="372" y="109"/>
		</contour>
		<contour>
			<point x="140" y="277" type="line"/>
			<point x="476" y="277" type="line"/>
			<point x="476" y="394" type="line"/>
			<point x="140" y="394" type="line"/>
		</contour>
	</outline>
	<anchor name="aboveUC" x="300" y="672"/>
</glyph>
<glyph name="Ustraightstroke" format="2">
	<unicode hex="04B0"/>
	<advance width="600"/>
	<outline>
		<contour>
			<point x="81" y="208" type="line"/>
			<point x="519" y="208" type="line"/>
			<point x="519" y="283" type="line"/>
			<point x="176" y="283" type="line"/>
			<point x="81" y="278" type="line"/>
		</contour>
		<component base="Ustraight"/>
	</outline>
	<anchor name="aboveUC" x="300" y="672"/>
</glyph>
<glyph name="g.sups" format="2">
	<unicode hex="1D4D"/>
	<advance width="600"/>
	<outline>
		<contour>
			<point x="284" y="237" type="curve" smooth="yes"/>
			<point x="406" y="237"/>
			<point x="484" y="286"/>
			<point x="484" y="356" type="curve" smooth="yes"/>
			<point x="484" y="415"/>
			<point x="435" y="440"/>
			<point x="347" y="440" type="curve" smooth="yes"/>
			<point x="287" y="440" type="line" smooth="yes"/>
			<point x="249" y="440"/>
			<point x="233" y="446"/>
			<point x="233" y="463" type="curve" smooth="yes"/>
			<point x="233" y="473"/>
			<point x="237" y="478"/>
			<point x="246" y="485" type="curve"/>
			<point x="263" y="481"/>
			<point x="277" y="479"/>
			<point x="290" y="479" type="curve" smooth="yes"/>
			<point x="369" y="479"/>
			<point x="429" y="512"/>
			<point x="429" y="589" type="curve" smooth="yes"/>
			<point x="429" y="605"/>
			<point x="423" y="620"/>
			<point x="416" y="629" type="curve"/>
			<point x="481" y="629" type="line"/>
			<point x="481" y="704" type="line"/>
			<point x="346" y="704" type="line"/>
			<point x="330" y="709"/>
			<point x="310" y="712"/>
			<point x="290" y="712" type="curve" smooth="yes"/>
			<point x="215" y="712"/>
			<point x="147" y="672"/>
			<point x="147" y="592" type="curve" smooth="yes"/>
			<point x="147" y="554"/>
			<point x="166" y="524"/>
			<point x="192" y="508" type="curve"/>
			<point x="192" y="506" type="line"/>
			<point x="167" y="489"/>
			<point x="151" y="466"/>
			<point x="151" y="444" type="curve" smooth="yes"/>
			<point x="151" y="416"/>
			<point x="166" y="399"/>
			<point x="185" y="388" type="curve"/>
			<point x="185" y="385" type="line"/>
			<point x="151" y="368"/>
			<point x="133" y="347"/>
			<point x="133" y="320" type="curve" smooth="yes"/>
			<point x="133" y="262"/>
			<point x="198" y="237"/>
		</contour>
		<contour>
			<point x="290" y="541" type="curve" smooth="yes"/>
			<point x="265" y="541"/>
			<point x="244" y="558"/>
			<point x="244" y="592" type="curve" smooth="yes"/>
			<point x="244" y="625"/>
			<point x="265" y="643"/>
			<point x="290" y="643" type="curve" smooth="yes"/>
			<point x="316" y="643"/>
			<point x="338" y="625"/>
			<point x="338" y="592" type="curve" smooth="yes"/>
			<point x="338" y="558"/>
			<point x="316" y="541"/>
		</contour>
		<contour>
			<point x="299" y="301" type="curve" smooth="yes"/>
			<point x="250" y="301"/>
			<point x="218" y="313"/>
			<point x="218" y="337" type="curve" smooth="yes"/>
			<point x="218" y="347"/>
			<point x="224" y="356"/>
			<point x="239" y="365" type="curve"/>
			<point x="251" y="363"/>
			<point x="265" y="361"/>
			<point x="289" y="361" type="curve" smooth="yes"/>
			<point x="329" y="361" type="line" smooth="yes"/>
			<point x="365" y="361"/>
			<point x="386" y="357"/>
			<point x="386" y="338" type="curve" smooth="yes"/>
			<point x="386" y="317"/>
			<point x="350" y="301"/>
		</contour>
	</outline>
</glyph>
<glyph name="iotaadscript" format="2">
	<unicode hex="1FBE"/>
	<advance width="600"/>
	<outline>
		<contour>
			<point x="359" y="-12" type="curve" smooth="yes"/>
			<point x="401" y="-12"/>
			<point x="425" y="-5"/>
			<point x="446" y="4" type="curve"/>
			<point x="428" y="113" type="line"/>
			<point x="418" y="109"/>
			<point x="405" y="107"/>
			<point x="397" y="107" type="curve" smooth="yes"/>
			<point x="370" y="107"/>
			<point x="353" y="117"/>
			<point x="353" y="149" type="curve" smooth="yes"/>
			<point x="353" y="215"/>
			<point x="358" y="324"/>
			<point x="363" y="416" type="curve"/>
			<point x="214" y="416" type="line"/>
			<point x="214" y="155" type="line" smooth="yes"/>
			<point x="214" y="54"/>
			<point x="249" y="-12"/>
		</contour>
	</outline>
</glyph>
<glyph name="figuredash" format="2">
	<unicode hex="2012"/>
	<advance width="600"/>
	<outline>
		<contour>
			<point x="80" y="199" type="line"/>
			<point x="520" y="199" type="line"/>
			<point x="520" y="310" type="line"/>
			<point x="80" y="310" type="line"/>
		</contour>
	</outline>
</glyph>
<glyph name="prime" format="2">
	<unicode hex="2032"/>
	<advance width="600"/>
	<outline>
		<contour>
			<point x="230" y="355" type="line"/>
			<point x="326" y="355" type="line"/>
			<point x="373" y="541" type="line"/>
			<point x="398" y="686" type="line"/>
			<point x="251" y="686" type="line"/>
		</contour>
	</outline>
</glyph>
<glyph name="interrobang" format="2">
	<unicode hex="203D"/>
	<advance width="600"/>
	<outline>
		<contour>
			<point x="273" y="255" type="curve"/>
			<point x="334" y="255" type="line"/>
			<point x="329" y="329"/>
			<point x="508" y="352"/>
			<point x="508" y="516" type="curve" smooth="yes"/>
			<point x="508" y="619"/>
			<point x="412" y="682"/>
			<point x="282" y="682" type="curve" smooth="yes"/>
			<point x="202" y="682"/>
			<point x="117" y="648"/>
			<point x="64" y="587" type="curve"/>
			<point x="145" y="512" type="line"/>
			<point x="184" y="553"/>
			<point x="221" y="572"/>
			<point x="272" y="572" type="curve" smooth="yes"/>
			<point x="331" y="572"/>
			<point x="376" y="542"/>
			<point x="376" y="489" type="curve" smooth="yes"/>
			<point x="376" y="382"/>
			<point x="258" y="379"/>
		</contour>
		<contour>
			<point x="231" y="255" type="line"/>
			<point x="316" y="255" type="line"/>
			<point x="318" y="417" type="line"/>
			<point x="320" y="509" type="line"/>
			<point x="202" y="509" type="line"/>
			<point x="212" y="417" type="line"/>
		</contour>
		<contour>
			<point x="278" y="-12" type="curve" smooth="yes"/>
			<point x="330" y="-12"/>
			<point x="369" y="29"/>
			<point x="369" y="84" type="curve" smooth="yes"/>
			<point x="369" y="138"/>
			<point x="330" y="180"/>
			<point x="278" y="180" type="curve" smooth="yes"/>
			<point x="225" y="180"/>
			<point x="186" y="138"/>
			<point x="186" y="84" type="curve" smooth="yes"/>
			<point x="186" y="29"/>
			<point x="225" y="-12"/>
		</contour>
	</outline>
</glyph>
<glyph name="naira" format="2">
	<unicode hex="20A6"/>
	<advance width="600"/>
	<outline>
		<contour>
			<point x="97" y="0" type="line"/>
			<point x="203" y="0" type="line"/>
			<point x="203" y="258" type="line"/>
			<point x="176" y="525" type="line"/>
			<point x="180" y="525" type="line"/>
			<point x="240" y="352" type="line"/>
			<point x="367" y="0" type="line"/>
			<point x="503" y="0" type="line"/>
			<point x="503" y="635" type="line"/>
			<point x="397" y="635" type="line"/>
			<point x="397" y="377" type="line"/>
			<point x="424" y="109" type="line"/>
			<point x="420" y="109" type="line"/>
			<point x="360" y="284" type="line"/>
			<point x="233" y="635" type="line"/>
			<point x="97" y="635" type="line"/>
		</contour>
		<contour>
			<point x="27" y="343" type="line"/>
			<point x="572" y="343" type="line"/>
			<point x="572" y="403" type="line"/>
			<point x="97" y="403" type="line"/>
			<point x="27" y="397" type="line"/>
		</contour>
		<contour>
			<point x="27" y="233" type="line"/>
			<point x="572" y="233" type="line"/>
			<point x="572" y="293" type="line"/>
			<point x="97" y="293" type="line"/>
			<point x="27" y="287" type="line"/>
		</contour>
	</outline>
</glyph>
<glyph name="peseta" format="2">
	<unicode hex="20A7"/>
	<advance width="600"/>
	<outline>
		<contour>
			<point x="101" y="0" type="line"/>
			<point x="240" y="0" type="line"/>
			<point x="240" y="215" type="line"/>
			<point x="284" y="215" type="line" smooth="yes"/>
			<point x="414" y="215"/>
			<point x="524" y="279"/>
			<point x="524" y="422" type="curve" smooth="yes"/>
			<point x="524" y="580"/>
			<point x="417" y="635"/>
			<point x="284" y="635" type="curve" smooth="yes"/>
			<point x="101" y="635" type="line"/>
		</contour>
		<contour>
			<point x="240" y="307" type="line"/>
			<point x="240" y="543" type="line"/>
			<point x="274" y="543" type="line" smooth="yes"/>
			<point x="348" y="543"/>
			<point x="388" y="506"/>
			<point x="388" y="422" type="curve" smooth="yes"/>
			<point x="388" y="350"/>
			<point x="348" y="307"/>
			<point x="274" y="307" type="curve" smooth="yes"/>
		</contour>
		<contour>
			<point x="20" y="380" type="line"/>
			<point x="587" y="380" type="line"/>
			<point x="587" y="471" type="line"/>
			<point x="115" y="471" type="line"/>
			<point x="20" y="465" type="line"/>
		</contour>
	</outline>
</glyph>
<glyph name="cedi" format="2">
	<unicode hex="20B5"/>
	<advance width="600"/>
	<outline>
		<contour>
			<point x="361" y="-12" type="curve" smooth="yes"/>
			<point x="442" y="-12"/>
			<point x="509" y="21"/>
			<point x="563" y="80" type="curve"/>
			<point x="482" y="156" type="line"/>
			<point x="451" y="121"/>
			<point x="416" y="102"/>
			<point x="370" y="102" type="curve" smooth="yes"/>
			<point x="279" y="102"/>
			<point x="226" y="181"/>
			<point x="226" y="319" type="curve" smooth="yes"/>
			<point x="226" y="453"/>
			<point x="275" y="533"/>
			<point x="367" y="533" type="curve" smooth="yes"/>
			<point x="410" y="533"/>
			<point x="443" y="515"/>
			<point x="474" y="490" type="curve"/>
			<point x="555" y="569" type="line"/>
			<point x="506" y="619"/>
			<point x="440" y="647"/>
			<point x="372" y="647" type="curve" smooth="yes"/>
			<point x="200" y="647"/>
			<point x="79" y="524"/>
			<point x="79" y="314" type="curve" smooth="yes"/>
			<point x="79" y="101"/>
			<point x="199" y="-12"/>
		</contour>
		<contour>
			<point x="323" y="-110" type="line"/>
			<point x="404" y="-110" type="line"/>
			<point x="404" y="736" type="line"/>
			<point x="323" y="736" type="line"/>
		</contour>
	</outline>
</glyph>
<glyph name="liraturkish" format="2">
	<unicode hex="20BA"/>
	<advance width="600"/>
	<outline>
		<contour>
			<point x="121" y="-12" type="line"/>
			<point x="389" y="-19"/>
			<point x="551" y="79"/>
			<point x="551" y="261" type="curve" smooth="yes"/>
			<point x="551" y="272"/>
			<point x="548" y="292"/>
			<point x="543" y="312" type="curve"/>
			<point x="422" y="284" type="line"/>
			<point x="426" y="269"/>
			<point x="426" y="260"/>
			<point x="426" y="254" type="curve" smooth="yes"/>
			<point x="426" y="183"/>
			<point x="351" y="133"/>
			<point x="268" y="125" type="curve"/>
			<point x="268" y="292" type="line"/>
			<point x="446" y="378" type="line"/>
			<point x="411" y="442" type="line"/>
			<point x="268" y="373" type="line"/>
			<point x="268" y="428" type="line"/>
			<point x="446" y="514" type="line"/>
			<point x="411" y="578" type="line"/>
			<point x="268" y="509" type="line"/>
			<point x="268" y="635" type="line"/>
			<point x="121" y="635" type="line"/>
			<point x="121" y="437" type="line"/>
			<point x="18" y="387" type="line"/>
			<point x="53" y="323" type="line"/>
			<point x="121" y="356" type="line"/>
			<point x="121" y="301" type="line"/>
			<point x="18" y="252" type="line"/>
			<point x="53" y="188" type="line"/>
			<point x="121" y="220" type="line"/>
		</contour>
	</outline>
</glyph>
<glyph name="arrowdblup" format="2">
	<unicode hex="21D1"/>
	<advance width="600"/>
	<outline>
		<contour>
			<point x="110" y="182" type="line"/>
			<point x="298" y="398" type="line"/>
			<point x="302" y="398" type="line"/>
			<point x="490" y="182" type="line"/>
			<point x="569" y="251" type="line"/>
			<point x="302" y="529" type="line"/>
			<point x="298" y="529" type="line"/>
			<point x="31" y="251" type="line"/>
		</contour>
		<contour>
			<point x="337" y="-26" type="line"/>
			<point x="422" y="-26" type="line"/>
			<point x="422" y="385" type="line"/>
			<point x="337" y="385" type="line"/>
		</contour>
		<contour>
			<point x="178" y="-26" type="line"/>
			<point x="263" y="-26" type="line"/>
			<point x="263" y="385" type="line"/>
			<point x="178" y="385" type="line"/>
		</contour>
	</outline>
</glyph>
<glyph name="integral" format="2">
	<unicode hex="222B"/>
	<advance width="600"/>
	<outline>
		<contour>
			<point x="204" y="-158" type="curve" smooth="yes"/>
			<point x="361" y="-158"/>
			<point x="392" y="-52"/>
			<point x="392" y="89" type="curve" smooth="yes"/>
			<point x="392" y="254"/>
			<point x="354" y="395"/>
			<point x="354" y="548" type="curve" smooth="yes"/>
			<point x="354" y="642"/>
			<point x="366" y="681"/>
			<point x="418" y="681" type="curve" smooth="yes"/>
			<point x="432" y="681"/>
			<point x="444" y="680"/>
			<point x="453" y="677" type="curve"/>
			<point x="468" y="784" type="line"/>
			<point x="457" y="787"/>
			<point x="434" y="791"/>
			<point x="411" y="791" type="curve" smooth="yes"/>
			<point x="254" y="791"/>
			<point x="223" y="685"/>
			<point x="223" y="544" type="curve" smooth="yes"/>
			<point x="223" y="379"/>
			<point x="260" y="238"/>
			<point x="260" y="85" type="curve" smooth="yes"/>
			<point x="260" y="-10"/>
			<point x="249" y="-48"/>
			<point x="197" y="-48" type="curve" smooth="yes"/>
			<point x="183" y="-48"/>
			<point x="171" y="-46"/>
			<point x="161" y="-44" type="curve"/>
			<point x="147" y="-150" type="line"/>
			<point x="158" y="-154"/>
			<point x="180" y="-158"/>
		</contour>
	</outline>
</glyph>
<glyph name="floorright" format="2">
	<unicode hex="231F"/>
	<advance width="600"/>
	<outline>
		<contour>
			<point x="104" y="-134" type="line"/>
			<point x="400" y="-134" type="line"/>
			<point x="400" y="635" type="line"/>
			<point x="288" y="635" type="line"/>
			<point x="288" y="-56" type="line"/>
			<point x="104" y="-56" type="line"/>
		</contour>
	</outline>
</glyph>
<glyph name="integralbt" format="2">
	<unicode hex="2321"/>
	<advance width="600"/>
	<outline>
		<contour>
			<point x="182" y="-158" type="curve" smooth="yes"/>
			<point x="339" y="-158"/>
			<point x="370" y="-52"/>
			<point x="370" y="89" type="curve"/>
			<point x="370" y="1000" type="line"/>
			<point x="238" y="1000" type="line"/>
			<point x="238" y="85" type="line"/>
			<point x="238" y="-10"/>
			<point x="227" y="-48"/>
			<point x="175" y="-48" type="curve" smooth="yes"/>
			<point x="161" y="-48"/>
			<point x="149" y="-46"/>
			<point x="139" y="-44" type="curve"/>
			<point x="125" y="-150" type="line"/>
			<point x="136" y="-154"/>
			<point x="158" y="-158"/>
		</contour>
	</outline>
</glyph>
<glyph name="uplightleftdnheavybxd" format="2">
	<unicode hex="252A"/>
	<advance width="600"/>
	<outline>
		<contour>
			<point x="437" y="-400" type="line"/>
			<point x="437" y="437" type="line"/>
			<point x="369" y="437" type="line"/>
			<point x="369" y="1000" type="line"/>
			<point x="231" y="1000" type="line"/>
			<point x="231" y="437" type="line"/>
			<point x="-69" y="437" type="line"/>
			<point x="-69" y="163" type="line"/>
			<point x="163" y="163" type="line"/>
			<point x="163" y="-400" type="line"/>
		</contour>
	</outline>
</glyph>
<glyph name="heavyvertleftbxd" format="2">
	<unicode hex="252B"/>
	<advance width="600"/>
	<outline>
		<contour>
			<point x="437" y="-400" type="line"/>
			<point x="437" y="1000" type="line"/>
			<point x="163" y="1000" type="line"/>
			<point x="163" y="437" type="line"/>
			<point x="-69" y="437" type="line"/>
			<point x="-69" y="163" type="line"/>
			<point x="163" y="163" type="line"/>
			<point x="163" y="-400" type="line"/>
		</contour>
	</outline>
</glyph>
<glyph name="leftdnheavyrightuplightbxd" format="2">
	<unicode hex="2545"/>
	<advance width="600"/>
	<outline>
		<contour>
			<point x="437" y="-400" type="line"/>
			<point x="437" y="231" type="line"/>
			<point x="669" y="231" type="line"/>
			<point x="669" y="369" type="line"/>
			<point x="437" y="369" type="line"/>
			<point x="437" y="437" type="line"/>
			<point x="369" y="437" type="line"/>
			<point x="369" y="1000" type="line"/>
			<point x="231" y="1000" type="line"/>
			<point x="231" y="437" type="line"/>
			<point x="-69" y="437" type="line"/>
			<point x="-69" y="163" type="line"/>
			<point x="163" y="163" type="line"/>
			<point x="163" y="-400" type="line"/>
		</contour>
	</outline>
</glyph>
<glyph name="updblhorzsngbxd" format="2">
	<unicode hex="2568"/>
	<advance width="600"/>
	<outline>
		<contour>
			<point x="669" y="231" type="line"/>
			<point x="669" y="369" type="line"/>
			<point x="506" y="369" type="line"/>
			<point x="506" y="1000" type="line"/>
			<point x="369" y="1000" type="line"/>
			<point x="369" y="369" type="line"/>
			<point x="231" y="369" type="line"/>
			<point x="231" y="1000" type="line"/>
			<point x="94" y="1000" type="line"/>
			<point x="94" y="369" type="line"/>
			<point x="-69" y="369" type="line"/>
			<point x="-69" y="231" type="line"/>
		</contour>
	</outline>
</glyph>
<glyph name="vertsnghorzdblbxd" format="2">
	<unicode hex="256A"/>
	<advance width="600"/>
	<outline>
		<contour>
			<point x="669" y="94" type="line"/>
			<point x="669" y="231" type="line"/>
			<point x="369" y="231" type="line"/>
			<point x="369" y="369" type="line"/>
			<point x="669" y="369" type="line"/>
			<point x="669" y="506" type="line"/>
			<point x="369" y="506" type="line"/>
			<point x="369" y="1000" type="line"/>
			<point x="231" y="1000" type="line"/>
			<point x="231" y="506" type="line"/>
			<point x="-69" y="506" type="line"/>
			<point x="-69" y="369" type="line"/>
			<point x="231" y="369" type="line"/>
			<point x="231" y="231" type="line"/>
			<point x="-69" y="231" type="line"/>
			<point x="-69" y="94" type="line"/>
			<point x="231" y="94" type="line"/>
			<point x="231" y="-400" type="line"/>
			<point x="369" y="-400" type="line"/>
			<point x="369" y="94" type="line"/>
		</contour>
	</outline>
</glyph>
<glyph name="lightarcdnleftbxd" format="2">
	<unicode hex="256E"/>
	<advance width="600"/>
	<outline>
		<contour>
			<point x="369" y="0" type="line" smooth="yes"/>
			<point x="369" y="204"/>
			<point x="204" y="369"/>
			<point x="0" y="369" type="curve" smooth="yes"/>
			<point x="-69" y="369" type="line"/>
			<point x="-69" y="231" type="line"/>
			<point x="0" y="231" type="line" smooth="yes"/>
			<point x="128" y="231"/>
			<point x="231" y="128"/>
			<point x="231" y="0" type="curve" smooth="yes"/>
			<point x="231" y="-400" type="line"/>
			<point x="369" y="-400" type="line"/>
		</contour>
	</outline>
</glyph>
<glyph name="lightdiagupleftdnrightbxd" format="2">
	<unicode hex="2572"/>
	<advance width="600"/>
	<outline>
		<contour>
			<point x="76" y="900" type="line"/>
			<point x="0" y="900" type="line"/>
			<point x="0" y="747" type="line"/>
			<point x="524" y="-300" type="line"/>
			<point x="600" y="-300" type="line"/>
			<point x="600" y="-147" type="line"/>
		</contour>
	</outline>
</glyph>
<glyph name="lightupbxd" format="2">
	<unicode hex="2575"/>
	<advance width="600"/>
	<outline>
		<contour>
			<point x="231" y="231" type="line"/>
			<point x="369" y="231" type="line"/>
			<point x="369" y="1000" type="line"/>
			<point x="231" y="1000" type="line"/>
		</contour>
	</outline>
</glyph>
<glyph name="heavyleftbxd" format="2">
	<unicode hex="2578"/>
	<advance width="600"/>
	<outline>
		<contour>
			<point x="-69" y="163" type="line"/>
			<point x="369" y="163" type="line"/>
			<point x="369" y="437" type="line"/>
			<point x="-69" y="437" type="line"/>
		</contour>
	</outline>
</glyph>
<glyph name="heavyrightbxd" format="2">
	<unicode hex="257A"/>
	<advance width="600"/>
	<outline>
		<contour>
			<point x="231" y="163" type="line"/>
			<point x="669" y="163" type="line"/>
			<point x="669" y="437" type="line"/>
			<point x="231" y="437" type="line"/>
		</contour>
	</outline>
</glyph>
<glyph name="heavydnbxd" format="2">
	<unicode hex="257B"/>
	<advance width="600"/>
	<outline>
		<contour>
			<point x="163" y="-400" type="line"/>
			<point x="437" y="-400" type="line"/>
			<point x="437" y="369" type="line"/>
			<point x="163" y="369" type="line"/>
		</contour>
	</outline>
</glyph>
<glyph name="squarewhite" format="2">
	<unicode hex="25A1"/>
	<advance width="600"/>
	<outline>
		<contour>
			<point x="53" y="83" type="line"/>
			<point x="547" y="83" type="line"/>
			<point x="547" y="577" type="line"/>
			<point x="53" y="577" type="line"/>
		</contour>
		<contour>
			<point x="139" y="162" type="line"/>
			<point x="139" y="498" type="line"/>
			<point x="461" y="498" type="line"/>
			<point x="461" y="162" type="line"/>
		</contour>
	</outline>
</glyph>
<glyph name="bulletsquare" format="2">
	<unicode hex="25AA"/>
	<advance width="600"/>
	<outline>
		<contour>
			<point x="149" y="114" type="line"/>
			<point x="451" y="114" type="line"/>
			<point x="451" y="410" type="line"/>
			<point x="149" y="410" type="line"/>
		</contour>
	</outline>
</glyph>
<glyph name="filledrect" format="2">
	<unicode hex="25AC"/>
	<advance width="600"/>
	<outline>
		<contour>
			<point x="0" y="179" type="line"/>
			<point x="600" y="179" type="line"/>
			<point x="600" y="330" type="line"/>
			<point x="0" y="330" type="line"/>
		</contour>
	</outline>
</glyph>
<glyph name="trianglesmallupwhite" format="2">
	<unicode hex="25B5"/>
	<advance width="600"/>
	<outline>
		<contour>
			<point x="90" y="96" type="line"/>
			<point x="510" y="96" type="line"/>
			<point x="510" y="100" type="line"/>
			<point x="302" y="476" type="line"/>
			<point x="298" y="476" type="line"/>
			<point x="90" y="100" type="line"/>
		</contour>
		<contour>
			<point x="211" y="166" type="line"/>
			<point x="300" y="342" type="line"/>
			<point x="389" y="166" type="line"/>
		</contour>
	</outline>
</glyph>
<glyph name="circleblack" format="2">
	<unicode hex="25CF"/>
	<advance width="600"/>
	<outline>
		<contour>
			<point x="300" y="90" type="curve" smooth="yes"/>
			<point x="440" y="90"/>
			<point x="543" y="193"/>
			<point x="543" y="330" type="curve" smooth="yes"/>
			<point x="543" y="467"/>
			<point x="440" y="570"/>
			<point x="300" y="570" type="curve" smooth="yes"/>
			<point x="160" y="570"/>
			<point x="57" y="467"/>
			<point x="57" y="330" type="curve" smooth="yes"/>
			<point x="57" y="193"/>
			<point x="160" y="90"/>
		</contour>
	</outline>
</glyph>
<glyph name="Eng.a" format="2">
	<advance width="600"/>
	<outline>
		<contour>
			<point x="378" y="-182" type="curve" smooth="yes"/>
			<point x="493" y="-182"/>
			<point x="534" y="-91"/>
			<point x="534" y="18" type="curve"/>
			<point x="534" y="652" type="line"/>
			<point x="393" y="652" type="line"/>
			<point x="393" y="421" type="line" smooth="yes"/>
			<point x="393" y="344"/>
			<point x="407" y="253"/>
			<point x="414" y="184" type="curve"/>
			<point x="410" y="184" type="line"/>
			<point x="354" y="328" type="line"/>
			<point x="217" y="652" type="line"/>
			<point x="66" y="652" type="line"/>
			<point x="66" y="0" type="line"/>
			<point x="207" y="0" type="line"/>
			<point x="207" y="231" type="line" smooth="yes"/>
			<point x="207" y="308"/>
			<point x="193" y="395"/>
			<point x="186" y="467" type="curve"/>
			<point x="190" y="467" type="line"/>
			<point x="246" y="325" type="line"/>
			<point x="383" y="0" type="line"/>
			<point x="393" y="0" type="line"/>
			<point x="393" y="-36"/>
			<point x="384" y="-66"/>
			<point x="351" y="-66" type="curve" smooth="yes"/>
			<point x="339" y="-66"/>
			<point x="329" y="-63"/>
			<point x="317" y="-59" type="curve"/>
			<point x="290" y="-168" type="line"/>
			<point x="311" y="-176"/>
			<point x="336" y="-182"/>
		</contour>
	</outline>
	<anchor name="aboveUC" x="310" y="672"/>
</glyph>
<glyph name="a.supa" format="2">
	<advance width="600"/>
	<outline>
		<contour>
			<point x="267" y="367" type="curve" smooth="yes"/>
			<point x="299" y="367"/>
			<point x="335" y="385"/>
			<point x="358" y="407" type="curve"/>
			<point x="360" y="407" type="line"/>
			<point x="368" y="375" type="line"/>
			<point x="452" y="375" type="line"/>
			<point x="452" y="704" type="line"/>
			<point x="372" y="704" type="line"/>
			<point x="363" y="671" type="line"/>
			<point x="360" y="671" type="line"/>
			<point x="334" y="699"/>
			<point x="304" y="712"/>
			<point x="272" y="712" type="curve" smooth="yes"/>
			<point x="197" y="712"/>
			<point x="128" y="647"/>
			<point x="128" y="539" type="curve" smooth="yes"/>
			<point x="128" y="432"/>
			<point x="184" y="367"/>
		</contour>
		<contour>
			<point x="295" y="451" type="curve" smooth="yes"/>
			<point x="259" y="451"/>
			<point x="235" y="478"/>
			<point x="235" y="541" type="curve" smooth="yes"/>
			<point x="235" y="602"/>
			<point x="264" y="628"/>
			<point x="293" y="628" type="curve" smooth="yes"/>
			<point x="311" y="628"/>
			<point x="332" y="622"/>
			<point x="349" y="608" type="curve"/>
			<point x="349" y="479" type="line"/>
			<point x="333" y="458"/>
			<point x="315" y="451"/>
		</contour>
	</outline>
</glyph>
<glyph name="caron.a" format="2">
	<advance width="600"/>
	<outline>
		<contour>
			<point x="241" y="548" type="line"/>
			<point x="340" y="548" type="line"/>
			<point x="364" y="724" type="line"/>
			<point x="366" y="822" type="line"/>
			<point x="235" y="822" type="line"/>
		</contour>
	</outline>
</glyph>
<glyph name="carondotaccentcmb" format="2">
	<advance width="600"/>
	<outline>
		<contour>
			<point x="300" y="702" type="curve" smooth="yes"/>
			<point x="343" y="702"/>
			<point x="376" y="731"/>
			<point x="376" y="775" type="curve" smooth="yes"/>
			<point x="376" y="819"/>
			<point x="343" y="850"/>
			<point x="300" y="850" type="curve" smooth="yes"/>
			<point x="257" y="850"/>
			<point x="224" y="819"/>
			<point x="224" y="775" type="curve" smooth="yes"/>
			<point x="224" y="731"/>
			<point x="257" y="702"/>
		</contour>
		<contour>
			<point x="225" y="577" type="line"/>
			<point x="375" y="577" type="line"/>
			<point x="483" y="708" type="line"/>
			<point x="435" y="752" type="line"/>
			<point x="302" y="655" type="line"/>
			<point x="298" y="655" type="line"/>
			<point x="165" y="752" type="line"/>
			<point x="117" y="708" type="line"/>
		</contour>
	</outline>
	<anchor name="_aboveLC" x="300" y="516"/>
</glyph>
<glyph name="dblgravecmb.cap" format="2">
	<advance width="600"/>
	<outline>
		<contour>
			<point x="179" y="694" type="line"/>
			<point x="251" y="728" type="line"/>
			<point x="151" y="889" type="line"/>
			<point x="57" y="837" type="line"/>
		</contour>
		<contour>
			<point x="366" y="694" type="line"/>
			<point x="439" y="728" type="line"/>
			<point x="338" y="889" type="line"/>
			<point x="244" y="837" type="line"/>
		</contour>
	</outline>
	<anchor name="_aboveUC" x="300" y="672"/>
</glyph>
<glyph name="dotlessi.a" format="2">
	<advance width="600"/>
	<outline>
		<contour>
			<point x="258" y="0" type="line"/>
			<point x="405" y="0" type="line"/>
			<point x="405" y="496" type="line"/>
			<point x="102" y="496" type="line"/>
			<point x="102" y="381" type="line"/>
			<point x="258" y="381" type="line"/>
		</contour>
		<contour>
			<point x="81" y="0" type="line"/>
			<point x="564" y="0" type="line"/>
			<point x="564" y="115" type="line"/>
			<point x="81" y="115" type="line"/>
		</contour>
	</outline>
	<anchor name="aboveLC" x="325" y="516"/>
	<anchor name="baseLC" x="334" y="0"/>
	<anchor name="belowLC" x="325" y="-20"/>
	<anchor name="ogonekLC" x="332" y="0"/>
</glyph>
<glyph name="endash.sups" format="2">
	<advance width="600"/>
	<outline>
		<contour>
			<point x="167" y="508" type="line"/>
			<point x="433" y="508" type="line"/>
			<point x="433" y="573" type="line"/>
			<point x="167" y="573" type="line"/>
		</contour>
	</outline>
</glyph>
<glyph name="hyphen.sups" format="2">
	<advance width="600"/>
	<outline>
		<contour>
			<point x="216" y="504" type="line"/>
			<point x="384" y="504" type="line"/>
			<point x="384" y="576" type="line"/>
			<point x="216" y="576" type="line"/>
		</contour>
	</outline>
</glyph>
<glyph name="ijacute" format="2">
	<advance width="600"/>
	<outline>
		<contour>
			<point x="77" y="0" type="line"/>
			<point x="224" y="0" type="line"/>
			<point x="224" y="496" type="line"/>
			<point x="77" y="496" type="line"/>
		</contour>
		<contour>
			<point x="357" y="-196" type="curve" smooth="yes"/>
			<point x="492" y="-196"/>
			<point x="534" y="-105"/>
			<point x="534" y="3" type="curve" smooth="yes"/>
			<point x="534" y="496" type="line"/>
			<point x="387" y="496" type="line"/>
			<point x="387" y="-1" type="line" smooth="yes"/>
			<point x="387" y="-56"/>
			<point x="374" y="-81"/>
			<point x="335" y="-81" type="curve" smooth="yes"/>
			<point x="321" y="-81"/>
			<point x="309" y="-78"/>
			<point x="296" y="-74" type="curve"/>
			<point x="270" y="-182" type="line"/>
			<point x="290" y="-190"/>
			<point x="316" y="-196"/>
		</contour>
		<component base="acutecmb" xOffset="-156"/>
		<component base="acutecmb" xOffset="154"/>
	</outline>
</glyph>
<glyph name="iogonek.da" format="2">
	<advance width="600"/>
	<outline>
		<contour>
			<point x="334" y="-227" type="curve" smooth="yes"/>
			<point x="371" y="-227"/>
			<point x="419" y="-214"/>
			<point x="447" y="-191" type="curve"/>
			<point x="416" y="-126" type="line"/>
			<point x="402" y="-134"/>
			<point x="386" y="-140"/>
			<point x="370" y="-140" type="curve" smooth="yes"/>
			<point x="341" y="-140"/>
			<point x="317" y="-125"/>
			<point x="317" y="-94" type="curve" smooth="yes"/>
			<point x="317" y="-62"/>
			<point x="340" y="-25"/>
			<point x="407" y="0" type="curve"/>
			<point x="564" y="0" type="line"/>
			<point x="564" y="115" type="line"/>
			<point x="405" y="115" type="line"/>
			<point x="405" y="496" type="line"/>
			<point x="102" y="496" type="line"/>
			<point x="102" y="381" type="line"/>
			<point x="258" y="381" type="line"/>
			<point x="258" y="115" type="line"/>
			<point x="81" y="115" type="line"/>
			<point x="81" y="0" type="line"/>
			<point x="300" y="0" type="line"/>
			<point x="260" y="-25"/>
			<point x="218" y="-67"/>
			<point x="218" y="-128" type="curve" smooth="yes"/>
			<point x="218" y="-194"/>
			<point x="270" y="-227"/>
		</contour>
	</outline>
	<anchor name="aboveLC" x="325" y="520"/>
</glyph>
<glyph name="istroke.d" format="2">
	<advance width="600"/>
	<outline>
		<contour>
			<point x="115" y="188" type="line"/>
			<point x="558" y="188" type="line"/>
			<point x="558" y="263" type="line"/>
			<point x="279" y="263" type="line"/>
			<point x="115" y="257" type="line"/>
		</contour>
		<component base="dotlessi"/>
	</outline>
	<anchor name="aboveLC" x="345" y="516"/>
	<anchor name="belowLC" x="345" y="-20"/>
</glyph>
<glyph name="lenis.cap" format="2">
	<advance width="600"/>
	<outline>
		<contour>
			<point x="255" y="430" type="line"/>
			<point x="330" y="438"/>
			<point x="394" y="472"/>
			<point x="394" y="554" type="curve" smooth="yes"/>
			<point x="394" y="613"/>
			<point x="349" y="654"/>
			<point x="226" y="657" type="curve"/>
			<point x="209" y="583" type="line"/>
			<point x="266" y="579"/>
			<point x="288" y="562"/>
			<point x="288" y="538" type="curve" smooth="yes"/>
			<point x="288" y="508"/>
			<point x="267" y="496"/>
			<point x="244" y="488" type="curve"/>
		</contour>
	</outline>
</glyph>
<glyph name="lenisgravecmb" format="2">
	<advance width="600"/>
	<outline>
		<contour>
			<point x="153" y="575" type="line"/>
			<point x="210" y="584"/>
			<point x="273" y="611"/>
			<point x="273" y="682" type="curve" smooth="yes"/>
			<point x="273" y="741"/>
			<point x="222" y="780"/>
			<point x="113" y="783" type="curve"/>
			<point x="106" y="701" type="line"/>
			<point x="156" y="698"/>
			<point x="176" y="686"/>
			<point x="176" y="666" type="curve" smooth="yes"/>
			<point x="176" y="645"/>
			<point x="160" y="637"/>
			<point x="141" y="633" type="curve"/>
		</contour>
		<contour>
			<point x="369" y="557" type="line"/>
			<point x="450" y="573" type="line"/>
			<point x="418" y="793" type="line"/>
			<point x="299" y="770" type="line"/>
		</contour>
	</outline>
	<anchor name="_aboveLC" x="300" y="516"/>
</glyph>
<glyph name="macroncmb.cap" format="2">
	<advance width="600"/>
	<outline>
		<contour>
			<point x="149" y="721" type="line"/>
			<point x="451" y="721" type="line"/>
			<point x="451" y="815" type="line"/>
			<point x="149" y="815" type="line"/>
		</contour>
	</outline>
	<anchor name="_aboveUC" x="300" y="672"/>
</glyph>
<glyph name="one.onum" format="2">
	<advance width="600"/>
	<outline>
		<contour>
			<point x="79" y="0" type="line"/>
			<point x="541" y="0" type="line"/>
			<point x="541" y="119" type="line"/>
			<point x="397" y="119" type="line"/>
			<point x="397" y="578" type="line"/>
			<point x="289" y="578" type="line"/>
			<point x="240" y="551"/>
			<point x="195" y="533"/>
			<point x="109" y="520" type="curve"/>
			<point x="109" y="429" type="line"/>
			<point x="250" y="429" type="line"/>
			<point x="250" y="119" type="line"/>
			<point x="79" y="119" type="line"/>
		</contour>
	</outline>
</glyph>
<glyph name="period.subs" format="2">
	<advance width="600"/>
	<outline>
		<contour>
			<point x="300" y="-195" type="curve" smooth="yes"/>
			<point x="336" y="-195"/>
			<point x="364" y="-168"/>
			<point x="364" y="-131" type="curve" smooth="yes"/>
			<point x="364" y="-93"/>
			<point x="336" y="-65"/>
			<point x="300" y="-65" type="curve" smooth="yes"/>
			<point x="264" y="-65"/>
			<point x="236" y="-93"/>
			<point x="236" y="-131" type="curve" smooth="yes"/>
			<point x="236" y="-168"/>
			<point x="264" y="-195"/>
		</contour>
	</outline>
</glyph>
<glyph name="three.dnom" format="2">
	<advance width="600"/>
	<outline>
		<contour>
			<point x="301" y="-12" type="curve" smooth="yes"/>
			<point x="374" y="-12"/>
			<point x="434" y="29"/>
			<point x="434" y="88" type="curve" smooth="yes"/>
			<point x="434" y="125"/>
			<point x="415" y="151"/>
			<point x="368" y="164" type="curve"/>
			<point x="408" y="178"/>
			<point x="422" y="199"/>
			<point x="422" y="235" type="curve" smooth="yes"/>
			<point x="422" y="288"/>
			<point x="369" y="324"/>
			<point x="303" y="324" type="curve" smooth="yes"/>
			<point x="249" y="324"/>
			<point x="201" y="306"/>
			<point x="171" y="282" type="curve"/>
			<point x="213" y="220" type="line"/>
			<point x="233" y="232"/>
			<point x="257" y="245"/>
			<point x="279" y="245" type="curve" smooth="yes"/>
			<point x="304" y="245"/>
			<point x="318" y="234"/>
			<point x="318" y="218" type="curve" smooth="yes"/>
			<point x="318" y="194"/>
			<point x="295" y="186"/>
			<point x="257" y="186" type="curve"/>
			<point x="257" y="131" type="line"/>
			<point x="308" y="131"/>
			<point x="330" y="119"/>
			<point x="330" y="96" type="curve" smooth="yes"/>
			<point x="330" y="76"/>
			<point x="311" y="67"/>
			<point x="288" y="67" type="curve" smooth="yes"/>
			<point x="260" y="67"/>
			<point x="227" y="81"/>
			<point x="206" y="96" type="curve"/>
			<point x="165" y="30" type="line"/>
			<point x="212" y="-5"/>
			<point x="260" y="-12"/>
		</contour>
	</outline>
</glyph>
<glyph name="zero.0o" format="2">
	<advance width="600"/>
	<outline>
		<contour>
			<point x="300" y="-12" type="curve" smooth="yes"/>
			<point x="447" y="-12"/>
			<point x="544" y="98"/>
			<point x="544" y="293" type="curve" smooth="yes"/>
			<point x="544" y="487"/>
			<point x="447" y="590"/>
			<point x="300" y="590" type="curve" smooth="yes"/>
			<point x="153" y="590"/>
			<point x="56" y="487"/>
			<point x="56" y="293" type="curve" smooth="yes"/>
			<point x="56" y="98"/>
			<point x="153" y="-12"/>
		</contour>
		<contour>
			<point x="300" y="94" type="curve" smooth="yes"/>
			<point x="237" y="94"/>
			<point x="187" y="144"/>
			<point x="187" y="293" type="curve" smooth="yes"/>
			<point x="187" y="440"/>
			<point x="237" y="485"/>
			<point x="300" y="485" type="curve" smooth="yes"/>
			<point x="363" y="485"/>
			<point x="413" y="440"/>
			<point x="413" y="293" type="curve" smooth="yes"/>
			<point x="413" y="144"/>
			<point x="363" y="94"/>
		</contour>
		<contour>
			<point x="390" y="101" type="line"/>
			<point x="473" y="121" type="line"/>
			<point x="210" y="480" type="line"/>
			<point x="127" y="461" type="line"/>
		</contour>
	</outline>
</glyph>
